<?xml version="1.0" encoding="utf-8" ?>
<svg xmlns="http://www.w3.org/2000/svg" xmlns:xlink="http://www.w3.org/1999/xlink" width="1024" height="1024">
	<path fill="#FEFEFE" d="M0 0L1024 0L1024 1024L0 1024L0 0Z"/>
	<path d="M300.757 682.605C301.082 682.68 301.412 682.74 301.733 682.831C302.975 683.183 303.892 683.888 304.464 685.052C306.269 688.723 306.506 707.332 304.903 710.872C303.906 713.075 302.254 713.545 300.138 714.35C299.904 714.285 299.669 714.225 299.436 714.156C297.913 713.702 296.096 713.041 295.49 711.413C293.917 707.182 294.281 688.649 296.588 684.862C297.605 683.19 298.991 682.998 300.757 682.605Z"/>
	<path fill="#4C87C4" d="M480.398 867.403C481.613 868.039 482.672 868.635 483.729 869.528L387.082 869.398C380.173 869.776 373.067 869.47 366.136 869.476L325.345 869.48L203.951 869.553L204.588 868.09L279.316 867.782Q295.645 867.67 311.973 867.812C317.259 867.841 322.939 867.454 328.162 868C364.893 867.586 401.642 867.963 438.376 867.964C445.958 867.964 476.317 868.873 480.398 867.403Z"/>
	<path fill="#4C87C4" d="M262.992 265.376C268.531 268.72 288.123 290.108 293.572 296.229C283.937 296.42 274.264 296.236 264.625 296.231L232.416 296.391C242.077 285.705 252.027 274.747 262.992 265.376Z"/>
	<path fill="#ADC0E3" d="M367.797 361.823C378.712 370.961 389.456 383.101 399.607 393.218C389.331 393.428 379.029 393.353 368.75 393.407Q352.538 393.327 336.326 393.434Q351.668 377.236 367.797 361.823Z"/>
	<path fill="#F5D14A" d="M742.824 274.295C747.098 277.496 750.811 282.626 754.434 286.564C761.062 293.767 768.046 300.705 774.284 308.25Q760.207 307.864 746.125 307.974L712.532 307.973C722.496 296.658 733.155 285.846 742.824 274.295Z"/>
	<path fill="#E67767" d="M668.35 422.909Q692.422 422.629 716.494 422.825Q716.255 447.015 716.431 471.205Q692.23 470.913 668.027 471.074C668.004 455.075 667.514 438.878 668.35 422.909Z"/>
	<path d="M428.313 189.706C428.508 189.679 428.703 189.645 428.9 189.626C436.407 188.896 444.396 189.463 451.964 189.468L498.292 189.505L544.902 189.463C556.471 189.446 568.151 189.067 579.66 190.447C608.958 193.96 639.975 207.459 662.034 226.973C672.818 236.513 684.157 248.795 686.651 263.519C687.456 268.276 687.306 273.228 687.32 278.037C687.357 291.385 686.744 305.058 687.649 318.372C688.373 329.01 691.01 339.629 697.59 348.224C716.181 372.511 751.017 358.496 776.305 364.001C783.505 365.569 790.179 369.199 795.704 374.041C818.078 393.652 809.474 418.789 811.315 444.511Q811.356 445.153 811.418 445.793Q811.48 446.433 811.564 447.071Q811.648 447.708 811.753 448.343Q811.858 448.977 811.985 449.608Q812.111 450.239 812.259 450.865Q812.406 451.491 812.575 452.111Q812.743 452.732 812.932 453.347Q813.122 453.961 813.331 454.569Q813.541 455.177 813.771 455.778Q814.002 456.379 814.252 456.971Q814.502 457.564 814.772 458.147Q815.042 458.731 815.331 459.305Q815.621 459.88 815.929 460.444Q816.238 461.008 816.565 461.562Q816.892 462.116 817.238 462.658Q817.584 463.2 817.948 463.731Q818.311 464.261 818.693 464.779Q819.074 465.297 819.473 465.802Q819.871 466.306 820.287 466.797Q820.702 467.289 821.134 467.765Q821.565 468.242 822.013 468.704Q822.46 469.166 822.923 469.613Q823.385 470.06 823.863 470.491Q824.34 470.922 824.832 471.336Q825.323 471.751 825.829 472.149Q826.334 472.547 826.852 472.928Q827.371 473.308 827.902 473.672Q828.432 474.035 828.975 474.38Q829.518 474.725 830.072 475.051Q830.626 475.378 831.191 475.686Q831.755 475.994 832.33 476.282Q832.905 476.571 833.489 476.84C840.289 479.94 847.707 481.722 854.588 484.754C862.889 488.41 870.334 493.327 877.153 499.3C894.731 514.701 909.415 539.514 910.6 563.281C910.667 564.627 910.951 565.238 910.043 566.261L908.82 566.306C908.617 566.053 908.364 565.832 908.211 565.545C907.398 564.024 907.298 559.721 906.99 557.858Q905.771 550.319 903.375 543.067C899.098 529.965 891.165 518.002 881.741 508.046C873.67 499.52 864.643 492.55 853.982 487.578C836.22 479.295 821.972 479.84 812.528 459.866C801.788 437.15 815.895 408.873 802.712 387.022C782.619 353.717 747.177 371.484 716.936 363.902C679.674 354.56 684.587 310.354 684.677 280.683C684.695 274.78 685.205 268.465 684.059 262.659C683.204 258.331 681.387 254.185 679.121 250.416C665.814 228.285 637.287 210.473 613.363 201.62C605.877 198.849 598.142 196.993 590.4 195.104C585.493 194.104 580.587 193.29 575.596 192.835C565.016 191.87 554.31 192.079 543.698 192.068L501.474 192.071L453.219 192.208C442.806 192.256 432.118 191.855 421.769 193.084C394.876 196.279 366.196 207.943 345.488 225.405C314.296 251.707 318.408 266.963 318.445 303.706C318.451 309.022 318.597 314.385 318.108 319.684C317.372 327.668 314.631 335.442 309.61 341.753C298.635 355.549 284.056 356.028 267.811 355.963L241.802 355.846C227.281 355.78 212.773 354.623 200.939 364.632Q199.836 365.552 198.808 366.554Q197.779 367.557 196.831 368.635Q195.883 369.714 195.021 370.863Q194.159 372.012 193.389 373.223Q192.618 374.435 191.943 375.703Q191.268 376.971 190.693 378.286Q190.118 379.602 189.646 380.959Q189.174 382.315 188.808 383.704C186.451 392.445 187.252 402.377 187.219 411.387L187.147 453.968C187.156 461.818 187.64 469.945 186.967 477.754C185.591 493.722 176.125 506.592 160.775 511.746C145.552 516.856 138.063 513.903 126.152 527.998C119.174 536.254 115.811 547.229 113.854 557.68C113.411 560.046 113.259 564.087 112.316 566.188C112.167 566.519 111.76 566.656 111.482 566.891L110.49 566.577L109.933 565.453C110.478 555.084 113.301 543.754 118.282 534.611C136.841 500.538 166.32 520.535 180.314 491.13C182.311 486.934 183.47 482.485 184.042 477.885C185.089 469.469 184.528 460.529 184.516 452.038L184.457 408.227C184.452 400.589 183.927 392.523 185.545 385.024Q185.797 383.824 186.122 382.641Q186.446 381.458 186.842 380.298Q187.239 379.137 187.705 378.003Q188.171 376.868 188.706 375.764Q189.241 374.661 189.842 373.592Q190.443 372.522 191.108 371.492Q191.773 370.462 192.5 369.474Q193.226 368.486 194.012 367.544Q194.925 366.433 195.919 365.393Q196.912 364.354 197.981 363.391Q199.049 362.428 200.187 361.548Q201.324 360.668 202.524 359.876Q203.725 359.083 204.98 358.383Q206.236 357.682 207.541 357.077Q208.846 356.473 210.192 355.967Q211.539 355.462 212.919 355.058C220.77 352.745 229.149 353.124 237.247 353.174L265.214 353.373C270.855 353.415 276.689 353.716 282.303 353.164C289.436 352.463 296.173 349.971 301.821 345.512C314.948 335.147 315.501 320.693 315.491 305.292C315.484 292.626 314.095 273.027 316.717 261.426C318.768 252.345 323.698 244.346 329.628 237.283C353.683 208.632 391.563 192.773 428.313 189.706Z"/>
	<path d="M120.368 767.53C114.903 746.097 110.288 724.445 105.162 702.929C102.555 691.986 97.7625 676.619 96.6631 665.974C96.308 662.537 96.8173 659.136 98.4047 656.044C100.244 652.461 103.37 649.617 107.248 648.427C110.968 647.285 114.823 647.857 118.17 649.801C122.14 652.108 124.925 656.011 126.692 660.172C129.222 666.127 131.815 679.111 133.745 686.204C141.1 713.235 147.485 740.509 154.668 767.578L168.325 767.513C173.162 742.869 177.819 717.866 181.195 692.979C182.01 686.974 184.948 680.832 189.922 677.198C193.173 674.821 197.16 673.75 201.158 674.384C204.649 674.937 207.648 676.736 209.676 679.643C212.012 682.992 212.868 687.366 212.902 691.384C212.978 700.566 210.487 710.43 208.994 719.478L201.176 767.808C205.64 767.837 211.373 766.893 215.614 768.418C216.873 771.682 205.758 856.767 204.588 868.09L203.951 869.553C191.447 870.049 178.873 869.758 166.358 869.74Q143.027 869.854 119.697 869.702C116.025 835.779 110.778 801.894 108.2 767.861C112.211 767.429 116.334 767.565 120.368 767.53Z"/>
	<path fill="#FEFEFE" d="M195.987 677.05C199.641 676.846 203.291 677.38 206.053 680.01C209.73 683.511 209.87 688.769 210.114 693.486L201.881 692.391C196.411 691.569 190.748 690.697 185.455 689.081Q185.94 687.533 186.521 686.018C188.288 681.533 191.677 678.89 195.987 677.05Z"/>
	<path fill="#FEFEFE" d="M110.387 650.583C113.154 650.894 115.392 651.491 117.704 653.105C124.479 657.833 125.784 667.045 126.971 674.579C123 675.336 119.101 676.486 115.202 677.545C111.097 678.659 107.112 679.743 102.895 680.355L101.734 675.753C100.145 669.367 98.1164 661.98 101.993 655.974C104.058 652.775 106.793 651.434 110.387 650.583Z"/>
	<path fill="#E67767" d="M184.761 691.855C192.746 694.179 201.518 695.167 209.767 696.191L202.143 742.718C200.899 750.322 200.084 758.312 198.283 765.785C197.987 767.011 198.035 767.122 196.988 767.74Q184.117 767.816 171.246 767.66C176.582 742.615 180.45 717.105 184.761 691.855Z"/>
	<path fill="#4C87C4" d="M125.653 678.126C126.649 677.961 127.126 677.916 128.064 678.313C130.398 681.528 148.719 756.863 151.611 767.798L130.375 767.672L123.625 767.617C116.121 739.838 110.862 711.459 103.661 683.594C111.044 681.969 118.22 679.581 125.653 678.126Z"/>
	<path fill="#4C87C4" d="M111.348 770.548Q162.182 770.872 213.016 770.472Q208.156 813.758 202.69 856.971L201.459 867.01Q161.812 866.512 122.162 866.66C121.702 857.999 120.378 849.23 119.376 840.613C116.667 817.325 113.108 793.91 111.348 770.548Z"/>
	<path d="M701.492 601.507C691.502 592.131 680.891 582.586 680.381 567.872Q680.353 566.916 680.372 565.96Q680.392 565.004 680.458 564.05Q680.525 563.096 680.638 562.146Q680.752 561.196 680.912 560.253Q681.073 559.31 681.279 558.377Q681.486 557.443 681.738 556.52Q681.991 555.598 682.288 554.689Q682.586 553.78 682.928 552.887Q683.27 551.994 683.656 551.119Q684.042 550.244 684.47 549.389Q684.899 548.534 685.369 547.701Q685.839 546.868 686.35 546.059Q686.861 545.251 687.411 544.468Q687.961 543.686 688.549 542.932Q689.137 542.177 689.761 541.453Q690.386 540.729 691.045 540.036C699.549 531.035 712.162 526.112 724.447 525.842C755.491 525.161 786.73 539.813 808.797 561.022C831.192 582.546 845.043 614.956 845.495 645.994C845.746 663.277 844.15 680.965 843.285 698.232L835.098 698.453C873.892 733.933 896.984 779.835 909.738 830.358Q911.867 838.532 913.563 846.807C914.651 852.244 915.881 864.818 918.144 869.067L917.92 869.377L917.069 868.889L917.448 869.488C903.071 870.858 883.402 869.853 868.561 869.833L773.503 869.72L483.729 869.528C482.672 868.635 481.613 868.039 480.398 867.403C478.286 865.716 476.764 864.505 476.415 861.669C475.3 852.588 489.235 835.128 495.003 828.278C501.993 819.978 509.202 812.196 520.409 810.645C520.727 803.241 523.186 797.252 526.085 790.489C504.482 789.965 482.884 790.327 461.28 790.346Q403.59 790.541 345.9 790.156C340.444 790.121 315.5 790.972 311.97 789.691C310.797 788.291 311.038 783.754 310.999 781.733C310.376 749.062 311.164 716.303 311.052 683.619L310.873 633.518C310.86 625.559 310.472 617.425 310.858 609.487L489.241 609.504L544.436 609.556C553.279 609.563 562.669 608.866 571.436 609.692C572.805 609.821 573.84 610.165 574.831 611.177C575.671 612.036 575.649 613.501 575.717 614.663C576.396 626.33 575.735 638.306 575.781 650.003C575.819 659.532 576.642 669.462 576.065 678.948C575.978 680.368 575.561 682.005 574.486 682.98C573.127 681.846 573.139 680.895 572.965 679.12C572.341 672.749 572.974 665.961 572.987 659.543C573.021 644.094 573.206 628.426 572.566 613.004C533.682 611.62 494.493 612.481 455.58 612.456C408.443 612.425 360.776 611.747 313.707 612.491L313.895 787.177L429.49 787.349C462.283 787.313 495.148 786.796 527.936 787.395C530.944 782.042 533.849 776.58 537.037 771.335C535.656 768.289 534.866 765.473 536.196 762.225C538.109 757.553 543.442 755.136 547.693 753.042C552.232 746.084 555.947 738.628 560.425 731.623C569.474 717.464 579.314 704.197 589.546 690.886L589.662 638.081C589.677 629.864 590.462 620.77 589.371 612.651C588.851 608.787 587.724 604.902 584.902 602.099C582.306 599.522 578.998 597.306 575.313 596.75C566.381 595.402 556.21 596.295 547.167 596.299L489.804 596.309L370.235 596.241C349.734 596.224 329.112 595.682 308.632 596.183C302.87 596.324 297.228 597.846 293.236 602.255C290.403 605.383 289.054 609.281 288.62 613.426C287.652 622.664 288.483 632.644 288.522 641.948L288.53 695.761L288.579 758.698C288.571 767.954 287.654 777.747 288.362 786.946C288.753 792.021 290.163 795.946 294.191 799.232C296.721 801.295 300.097 803.099 303.374 803.51C309.296 804.252 315.648 803.759 321.627 803.72L351.468 803.615L455.721 803.613C462.665 803.611 483.185 802.466 488.148 804.325C489.321 804.765 488.926 804.442 489.506 805.465C488.635 806.139 487.909 806.285 486.839 806.438C478.729 807.598 465.907 806.666 457.412 806.653L391.007 806.546L331.154 806.644C322.219 806.665 312.247 807.633 303.438 806.568C297.89 805.898 292.319 802.642 288.934 798.19C286.776 795.353 285.781 791.744 285.496 788.232C284.735 778.868 285.608 768.989 285.613 759.571L285.543 696.602L285.504 641.584C285.487 632.036 284.546 621.427 286.077 612.009C287.084 605.81 289.839 600.776 295.052 597.152C298.783 594.558 302.576 593.643 307.032 593.375C313.965 592.959 321.036 593.26 327.988 593.266L365.735 593.291L481.653 593.337L546.338 593.346C555.219 593.342 567.539 592.233 575.923 593.751C581.456 594.752 585.783 598.115 588.899 602.703C590.667 605.306 591.69 607.983 592.133 611.093C593.233 618.82 592.594 627.276 592.583 635.079C592.556 652.549 592.045 670.149 592.703 687.597C598.483 680.578 619.27 659.63 627.283 657.925L628.584 658.271C629.514 659.977 629.312 661.325 628.785 663.162C627.232 668.574 624.599 673.994 622.345 679.145C613.195 700.062 602.332 721.985 587.174 739.271C595.253 745.118 600.67 753.423 607.949 760.065C620.865 760.693 633.929 760.299 646.867 760.308C660.583 760.317 674.374 760.695 688.081 760.371C692.339 742.098 693.416 720.56 711.008 709.569C717.268 705.658 724.052 703.927 731.271 702.79C731.376 701.01 731.317 698.676 731.976 697.014C734.749 690.024 752.02 675.235 757.662 667.763C757.954 663.653 757.99 659.572 757.989 655.453C750.635 665.783 741.194 674.347 728.26 676.536Q727.277 676.695 726.287 676.806Q725.297 676.917 724.302 676.978Q723.308 677.04 722.312 677.053Q721.316 677.065 720.321 677.028Q719.325 676.992 718.333 676.906Q717.34 676.82 716.353 676.685Q715.366 676.551 714.387 676.367Q713.408 676.184 712.439 675.953Q711.47 675.721 710.514 675.443Q709.557 675.164 708.616 674.838Q707.675 674.512 706.75 674.14Q705.826 673.768 704.922 673.351Q704.017 672.934 703.134 672.473Q702.251 672.012 701.392 671.508Q700.533 671.003 699.699 670.458Q698.866 669.911 698.061 669.325C689.266 662.921 684.021 653.217 682.43 642.541C680.837 631.846 683.355 620.655 689.943 612.007C693.202 607.729 697.09 604.536 701.492 601.507Z"/>
	<path fill="#FEFEFE" d="M539.331 773.395C545.689 776.493 552.312 775.735 559.029 774.687C550.32 782.676 544.073 792.979 535.491 801.185C532.342 803.81 528.237 808.098 524.34 809.199L523.92 808.576C523.549 798.258 534.089 782.302 539.331 773.395Z"/>
	<path fill="#FEFEFE" d="M555.334 783.944C554.942 788.65 555.354 792.507 557.838 796.637C562.574 804.513 570.643 808.281 579.209 810.325C570.774 810.841 562.249 810.623 553.798 810.624Q541.121 810.688 528.447 810.951C540.087 802.92 545.61 793.243 555.334 783.944Z"/>
	<path fill="#FEFEFE" d="M625.281 661.967L625.685 662.656C613.662 692.609 603.018 714.103 582.928 739.647L583.273 739.535C573.072 742.725 563.263 746.042 553.483 750.403L553.272 749.821C572.447 717.916 593.933 683.4 625.281 661.967Z"/>
	<path fill="#FEFEFE" d="M717.688 598.632Q718.545 598.551 719.405 598.508Q720.265 598.465 721.126 598.461Q721.987 598.456 722.847 598.489Q723.708 598.523 724.566 598.594Q725.424 598.666 726.278 598.775Q727.132 598.885 727.98 599.032Q728.829 599.18 729.67 599.364Q730.511 599.549 731.343 599.771Q732.174 599.993 732.996 600.252Q733.817 600.51 734.626 600.805Q735.435 601.099 736.23 601.43Q737.025 601.76 737.805 602.125Q738.585 602.49 739.348 602.89Q740.11 603.289 740.855 603.722Q741.599 604.155 742.323 604.62Q743.048 605.086 743.751 605.583C751.542 611.104 756.882 619.984 758.474 629.371C760.175 639.405 758.315 649.823 752.34 658.158C746.096 666.867 736.568 672.247 726.118 673.975C717.006 674.514 708.458 673.114 700.896 667.717Q700.121 667.173 699.375 666.591Q698.628 666.009 697.912 665.39Q697.195 664.771 696.511 664.117Q695.826 663.463 695.175 662.775Q694.524 662.088 693.909 661.369Q693.293 660.649 692.714 659.9Q692.136 659.151 691.595 658.374Q691.055 657.596 690.554 656.793Q690.053 655.99 689.593 655.162Q689.133 654.335 688.715 653.485Q688.297 652.636 687.923 651.766Q687.548 650.897 687.217 650.01Q686.887 649.123 686.601 648.22Q686.315 647.318 686.075 646.402Q685.834 645.486 685.64 644.56Q685.446 643.633 685.299 642.698Q685.144 641.771 685.034 640.838Q684.924 639.905 684.861 638.967Q684.797 638.029 684.78 637.09Q684.762 636.15 684.791 635.211Q684.82 634.271 684.896 633.335Q684.971 632.398 685.092 631.466Q685.213 630.534 685.38 629.609Q685.547 628.685 685.76 627.769Q685.972 626.854 686.229 625.95Q686.487 625.046 686.788 624.156Q687.09 623.266 687.435 622.392Q687.779 621.518 688.167 620.661Q688.555 619.805 688.984 618.969Q689.413 618.133 689.883 617.32Q690.353 616.506 690.863 615.716Q691.372 614.927 691.92 614.163C698.092 605.58 707.344 600.311 717.688 598.632Z"/>
	<path fill="#FEFEFE" d="M584.893 742.602C588.757 743.007 602.744 759.499 606.229 763.139C615.488 763.931 625.314 763.292 634.623 763.245Q661.07 763.05 687.515 763.423C684.518 778.439 681.066 793.443 677.851 808.419L617.884 809.181C602.047 809.367 578.171 810.984 565.329 800.427C561.793 797.52 558.116 793.42 557.812 788.638C557.107 777.563 569.085 774.354 575.052 767.781L574.99 766.918L574.211 766.519C571.312 766.669 568.447 768.388 565.769 769.438C559.433 771.923 549.152 773.755 542.807 770.808C540.961 769.951 538.829 768.41 538.355 766.308C538.109 765.215 538.447 764.165 538.998 763.222C543.559 755.413 575.376 745.132 584.893 742.602Z"/>
	<path fill="#FEFEFE" d="M723.783 528.696Q726.933 528.678 730.078 528.858Q731.543 528.955 733.005 529.087Q734.467 529.219 735.926 529.387Q737.384 529.555 738.838 529.759Q740.292 529.962 741.741 530.201Q743.19 530.439 744.632 530.713Q746.074 530.987 747.51 531.295Q748.945 531.604 750.372 531.948Q751.8 532.291 753.218 532.67Q754.637 533.048 756.046 533.46Q757.455 533.873 758.853 534.32Q760.252 534.766 761.639 535.247Q763.026 535.728 764.401 536.242Q765.777 536.756 767.139 537.304Q768.501 537.851 769.85 538.432Q771.198 539.012 772.532 539.625Q773.866 540.238 775.185 540.884Q776.503 541.529 777.806 542.206Q779.109 542.883 780.394 543.592Q781.68 544.301 782.948 545.041Q784.216 545.78 785.466 546.551Q786.716 547.321 787.947 548.122Q789.177 548.922 790.388 549.753Q791.599 550.583 792.789 551.442Q793.979 552.302 795.149 553.19Q796.318 554.078 797.465 554.994Q798.612 555.911 799.736 556.855Q800.861 557.799 801.962 558.77Q803.063 559.741 804.14 560.738Q805.217 561.736 806.27 562.759Q807.323 563.782 808.35 564.831Q809.378 565.88 810.379 566.953Q811.381 568.027 812.356 569.124Q814.016 571.019 815.596 572.98Q817.176 574.942 818.673 576.967Q820.171 578.992 821.583 581.078Q822.996 583.163 824.321 585.305Q825.647 587.447 826.882 589.642Q828.118 591.837 829.262 594.081Q830.406 596.325 831.456 598.614Q832.506 600.904 833.461 603.234Q834.416 605.565 835.273 607.934Q836.131 610.302 836.89 612.704Q837.649 615.105 838.308 617.536Q838.967 619.967 839.525 622.424Q840.083 624.88 840.539 627.357Q840.996 629.834 841.349 632.328Q841.702 634.822 841.953 637.328Q842.203 639.834 842.349 642.349C842.8 650.95 842.15 659.677 841.804 668.278C841.44 677.328 841.155 686.353 840.523 695.391L775.125 695.494L736.703 695.637C743.876 686.007 753.553 678.371 760.744 668.824C761.195 662.771 760.862 656.595 761.028 650.519C761.315 639.963 763.249 630.848 759.144 620.691C754.992 610.416 747.392 602.964 737.198 598.694C726.189 594.082 715.287 595.219 704.447 599.574Q702.28 597.898 700.177 596.144C692.066 589.413 684.422 580.384 683.503 569.462Q683.431 568.595 683.401 567.725Q683.371 566.856 683.384 565.986Q683.397 565.116 683.452 564.248Q683.508 563.38 683.606 562.515Q683.704 561.651 683.844 560.792Q683.984 559.933 684.166 559.083Q684.348 558.232 684.572 557.391Q684.795 556.55 685.059 555.721Q685.324 554.892 685.629 554.078Q685.933 553.263 686.278 552.464Q686.622 551.665 687.005 550.883Q687.388 550.102 687.809 549.341Q688.229 548.579 688.687 547.839Q689.145 547.099 689.638 546.383Q690.131 545.666 690.659 544.975Q691.187 544.283 691.748 543.618C699.814 534.21 711.677 529.643 723.783 528.696Z"/>
	<path fill="#F5D14A" d="M735.217 698.504Q782.827 698.229 830.438 698.466C871.018 735.181 893.294 777.765 906.508 830.472C909.537 842.554 912.75 854.691 913.754 867.147L888.25 867.12L750.507 867.29C756.02 842.803 760.546 818.003 765.504 793.393C768.447 778.78 774.423 756.881 774.434 742.382C774.438 736.479 772.708 730.668 769.936 725.486C764.723 715.741 755.998 707.593 745.167 704.6C741.721 703.648 738.112 703.603 734.677 702.588C734.16 701.238 734.827 699.828 735.217 698.504Z"/>
	<path fill="#FEFEFE" d="M731.701 706.184C732.472 706.118 733.227 706.061 734.002 706.054C743.321 705.968 751.702 709.407 758.411 715.88C765.125 722.357 769.365 731.24 769.412 740.631C769.449 748.047 767.364 755.575 765.908 762.823L758.214 800.232C754.994 816.423 752.304 837.559 747.604 853.034C746.45 856.833 744.935 860.094 742.067 862.918C740.01 864.944 737.815 866.337 734.916 866.7C727.67 867.608 719.707 866.951 712.391 866.914L669.151 866.748L517.25 866.497C509.928 866.508 488.196 867.711 482.73 864.923C481.09 864.087 479.654 862.712 479.318 860.829C478.258 854.883 491.063 838.395 495.039 833.226C499.615 827.277 506.983 818.155 514.272 815.538C522.342 812.641 540.325 813.852 549.398 813.783C577.738 813.57 606.079 812.991 634.418 813.037Q647.973 813.056 661.526 813.265C667.4 813.341 673.611 813.797 679.434 812.966C679.648 812.936 679.861 812.899 680.074 812.865C683.367 796.989 687.126 781.208 690.397 765.336C692.675 754.284 694.044 742.599 697.67 731.905Q698.242 730.178 698.972 728.512Q699.701 726.845 700.583 725.254Q701.465 723.663 702.49 722.16Q703.516 720.658 704.677 719.257C711.692 710.879 721.038 707.18 731.701 706.184Z"/>
</svg>
