<svg width="480" height="280" viewBox="0 0 480 280" fill="none" xmlns="http://www.w3.org/2000/svg">
<mask id="mask0_898_7443" style="mask-type:alpha" maskUnits="userSpaceOnUse" x="0" y="0" width="480" height="280">
<rect width="480" height="280" fill="#D9D9D9"/>
</mask>
<g mask="url(#mask0_898_7443)">
<path d="M149.731 164.882C154.446 164.882 158.806 167.347 161.119 171.396L187.543 217.434L199.198 220.075C221.263 228.437 213.789 269.81 213.789 269.81L53.2868 269.546C42.5214 269.194 32.5567 263.12 28.0192 253.437C12.2715 219.987 73.8389 174.653 85.672 166.378C86.9176 165.498 88.4301 165.058 89.9426 165.058L149.731 164.882Z" fill="#5E9AD9"/>
<path d="M83.7142 167.786C81.0451 169.723 77.0414 172.628 72.5039 176.325C82.7355 183.895 98.9281 192.17 116.811 187.416C116.811 187.416 90.7428 183.543 83.7142 167.786Z" fill="#2764A5"/>
<path d="M144.305 187.505C152.757 187.241 160.23 184.512 166.458 180.815L162.277 173.508C158.095 183.103 144.305 187.505 144.305 187.505Z" fill="#2764A5"/>
<path d="M155.692 151.238C137.898 130.639 111.563 134.601 97.061 138.914C87.1853 141.819 80.6905 151.414 82.025 161.449C84.8721 182.223 117.257 187.505 117.257 187.505H144.215C144.304 187.505 178.469 177.558 155.692 151.238Z" fill="#5E9AD9"/>
<path d="M144.305 188.561C143.86 188.561 143.504 188.297 143.326 187.857C143.149 187.328 143.504 186.8 144.038 186.624C144.216 186.624 158.896 182.135 161.921 171.924C163.701 166.026 161.299 159.336 154.893 151.942C137.454 131.783 111.386 135.745 97.3289 139.97C87.898 142.787 81.759 152.03 83.0046 161.448C85.6737 181.255 117.08 186.624 117.436 186.712C117.97 186.8 118.326 187.328 118.237 187.857C118.148 188.385 117.614 188.737 117.08 188.649C116.724 188.561 108.717 187.24 100.265 183.279C88.8767 177.998 82.2039 170.515 80.9583 161.713C79.5348 151.325 86.2965 141.114 96.706 138.033C111.208 133.72 138.255 129.583 156.405 150.621C163.256 158.632 165.747 165.938 163.79 172.54C160.409 183.807 145.195 188.385 144.483 188.561C144.483 188.561 144.394 188.561 144.305 188.561Z" fill="#2764A5"/>
<path d="M104.89 137.592C108.084 137.592 110.674 135.03 110.674 131.87C110.674 128.71 108.084 126.149 104.89 126.149C101.697 126.149 99.1074 128.71 99.1074 131.87C99.1074 135.03 101.697 137.592 104.89 137.592Z" fill="white"/>
<path d="M104.89 138.649C101.598 138.649 98.6622 136.273 98.1284 132.928C97.8615 131.167 98.3063 129.318 99.374 127.91C100.442 126.414 102.043 125.445 103.822 125.181C105.602 124.917 107.47 125.357 108.894 126.414C110.406 127.47 111.385 129.054 111.652 130.815C112.275 134.512 109.695 137.945 105.958 138.561C105.602 138.649 105.246 138.649 104.89 138.649ZM104.89 127.118C104.623 127.118 104.356 127.118 104.089 127.206C102.844 127.382 101.687 128.086 100.975 129.142C100.264 130.199 99.9078 131.431 100.086 132.663C100.531 135.216 102.933 137.065 105.602 136.625C108.182 136.185 110.05 133.72 109.606 131.167C109.428 129.935 108.716 128.79 107.648 128.086C106.847 127.382 105.869 127.118 104.89 127.118Z" fill="#2764A5"/>
<path d="M107.115 137.505V159.688C107.115 162.857 108.806 165.762 111.475 167.346L135.319 181.694L144.305 164.793V143.755L107.115 137.505Z" fill="white"/>
<path d="M135.762 183.103L111.918 168.754C108.359 166.553 106.135 162.68 106.135 158.543V137.505C106.135 136.976 106.58 136.536 107.113 136.536C107.647 136.536 108.092 136.976 108.092 137.505V158.543C108.092 161.976 109.96 165.233 112.897 167.082L134.872 180.286L141.723 167.434C142.702 165.497 143.235 163.385 143.235 161.272V157.487C143.235 156.959 143.68 156.518 144.214 156.518C144.748 156.518 145.193 156.959 145.193 157.487V161.36C145.193 163.825 144.57 166.289 143.413 168.49L135.762 183.103Z" fill="#2764A5"/>
<path d="M139.499 158.808C124.997 161.096 111.117 152.118 107.47 138.033L99.9961 109.072C99.9961 109.072 147.773 88.4739 152.578 100.71C156.403 110.481 156.492 127.998 155.869 140.762C155.336 149.829 148.574 157.399 139.499 158.808Z" fill="white"/>
<path d="M134.873 160.217C129.09 160.217 123.485 158.544 118.769 155.463C112.541 151.414 108.093 144.988 106.314 137.418C106.225 136.889 106.492 136.361 107.114 136.185C107.648 136.097 108.182 136.361 108.36 136.977C111.385 149.653 122.417 158.192 135.051 158.192C136.475 158.192 137.987 158.104 139.499 157.84C148.041 156.519 154.535 149.301 154.98 140.763C155.336 133.632 155.158 123.245 154.624 115.675C154.624 115.147 154.98 114.619 155.603 114.619C156.137 114.53 156.671 114.971 156.671 115.587C157.294 123.333 157.383 133.72 157.027 140.939C156.582 150.446 149.375 158.456 139.855 159.953C138.076 160.041 136.475 160.217 134.873 160.217Z" fill="#2764A5"/>
<path d="M121.528 114.706C119.749 114.354 118.058 113.914 116.279 113.474C116.012 119.988 113.699 126.502 109.695 131.783C109.161 132.4 108.538 133.104 107.649 133.016C107.115 132.928 106.759 132.576 106.403 132.224C105.335 131.079 104.179 130.023 103.111 128.879C101.777 127.558 100.442 127.03 98.8406 125.886C95.1039 123.157 92.1679 119.196 91.2782 114.706C90.3885 110.217 91.901 105.199 95.5487 102.294C99.1965 99.3895 104.98 99.0374 108.538 101.942C111.208 89.9706 122.952 80.3756 135.585 79.9355C143.326 79.6714 151.066 82.9284 156.493 88.122C158.54 90.0586 160.319 92.3473 161.654 94.8121C163.166 97.6289 164.946 100.974 164.234 104.319C163.077 109.601 159.518 113.914 154.447 115.939C149.465 117.875 143.949 117.787 138.699 117.347C132.916 116.819 127.133 115.939 121.528 114.706Z" fill="#2764A5"/>
<path d="M213.88 270.779C213.791 270.779 213.791 270.779 213.702 270.779C213.168 270.691 212.812 270.162 212.901 269.634C212.99 269.194 219.93 229.054 199.022 221.043L186.922 218.314L161.387 174.477C161.12 174.037 161.298 173.421 161.743 173.068C162.188 172.804 162.811 172.98 163.167 173.421L188.256 216.554L199.555 219.107H199.644C209.075 222.716 214.68 232.663 215.926 247.98C216.816 259.335 214.947 269.898 214.947 269.986C214.769 270.426 214.324 270.779 213.88 270.779Z" fill="#2764A5"/>
<path d="M77.8434 270.778C67.6118 270.778 58.4479 270.602 53.2876 270.514C41.8104 270.25 31.4899 263.736 27.1303 253.965C23.3936 245.69 24.1053 235.919 29.1766 224.916C33.1803 216.289 39.942 206.782 49.195 196.835C64.9427 179.934 82.9147 167.17 83.0927 167.082C83.5375 166.73 84.1603 166.906 84.5162 167.346C84.8721 167.786 84.6941 168.402 84.2493 168.754C84.0713 168.842 66.2773 181.518 50.6185 198.243C41.4545 208.014 34.8707 217.345 30.956 225.796C26.1516 236.183 25.4399 245.426 28.9097 253.172C33.0024 262.239 42.5222 268.313 53.2876 268.577C84.6052 269.281 120.727 268.841 128.023 265.496C137.543 261.183 134.873 244.105 134.251 240.672C133.984 239.176 132.649 238.032 131.137 237.944L76.3309 232.662C75.7971 232.574 75.3522 232.134 75.4412 231.606C75.5302 231.077 75.975 230.637 76.5089 230.725L131.315 236.007C133.806 236.183 135.852 237.944 136.297 240.32C137.276 245.426 139.589 262.503 128.912 267.345C122.507 270.074 98.0397 270.778 77.8434 270.778Z" fill="#2764A5"/>
<path d="M131.581 243.666L150.532 244.634L171.618 255.638C172.686 256.166 173.13 257.486 172.597 258.543C172.063 259.599 170.817 260.039 169.75 259.599L156.048 254.053C155.781 253.965 155.603 254.317 155.87 254.405L170.105 263.912C171.084 264.617 171.351 265.937 170.639 266.905C170.017 267.786 168.771 268.05 167.792 267.522L151.778 258.015C151.6 257.927 151.422 258.103 151.6 258.279L157.828 263.912C159.251 265.145 158.628 267.522 156.76 267.874C156.137 267.962 155.603 267.874 155.069 267.61L148.575 263.736L131.314 263.824C125.62 263.824 121.083 259.335 121.083 253.701C120.905 247.979 125.798 243.402 131.581 243.666Z" fill="white"/>
<path d="M156.137 268.93C155.514 268.93 154.98 268.754 154.446 268.489L148.129 264.792L131.225 264.88C131.225 264.88 131.225 264.88 131.136 264.88C128.111 264.88 125.353 263.736 123.218 261.623C121.082 259.511 119.926 256.694 119.926 253.789C119.926 250.708 121.171 247.891 123.396 245.778C125.62 243.666 128.556 242.609 131.67 242.697L150.887 243.754L172.151 254.845C173.664 255.637 174.287 257.486 173.575 259.071C172.863 260.567 170.995 261.271 169.482 260.655L162.987 258.014L170.728 263.208C171.44 263.648 171.884 264.44 172.062 265.232C172.24 266.025 172.062 266.905 171.529 267.609C170.55 268.93 168.77 269.37 167.347 268.489L158.717 263.384C159.518 264.264 159.873 265.408 159.607 266.553C159.251 267.785 158.361 268.666 157.115 268.93C156.582 268.842 156.404 268.93 156.137 268.93ZM148.663 262.68L155.425 266.729C155.692 266.905 156.048 266.993 156.404 266.905C156.937 266.817 157.293 266.465 157.382 265.937C157.471 265.497 157.382 264.968 157.026 264.616L150.798 258.982C150.354 258.542 150.265 257.926 150.621 257.398C150.976 256.958 151.688 256.782 152.133 257.134L168.148 266.641C168.682 266.905 169.304 266.817 169.66 266.289C169.838 266.025 169.927 265.761 169.838 265.408C169.749 265.144 169.571 264.88 169.393 264.704L155.158 255.197C154.624 254.845 154.446 254.141 154.802 253.613C155.158 253.085 155.781 252.821 156.315 253.085L170.016 258.63C170.639 258.894 171.262 258.63 171.529 258.014C171.795 257.398 171.618 256.782 170.995 256.43L150.176 245.514L131.492 244.634C129.001 244.546 126.599 245.426 124.73 247.187C122.862 248.947 121.883 251.236 121.883 253.789C121.883 256.254 122.862 258.542 124.552 260.215C126.332 261.975 128.645 262.856 131.047 262.856L148.663 262.68Z" fill="#2764A5"/>
<path d="M115.478 252.469C114.856 252.469 114.411 251.941 114.5 251.413C114.678 246.923 117.347 242.962 121.439 241.114C121.973 240.849 122.596 241.114 122.774 241.554C123.041 242.082 122.774 242.698 122.329 242.874C118.948 244.459 116.724 247.716 116.546 251.501C116.457 252.029 116.012 252.469 115.478 252.469Z" fill="#2764A5"/>
<path d="M85.0493 230.022C84.4265 230.022 83.9817 229.494 84.0707 228.966C84.2486 224.212 81.4905 222.364 81.4015 222.275C80.9567 222.011 80.7788 221.307 81.1346 220.867C81.4015 220.427 82.0243 220.251 82.5582 220.603C82.7361 220.691 86.3839 223.068 86.117 229.054C86.028 229.582 85.5832 230.022 85.0493 230.022Z" fill="#2764A5"/>
<path d="M170.195 236.711H170.106C169.572 236.623 169.128 236.183 169.216 235.567C171.263 219.282 185.409 218.842 185.587 218.842C186.121 218.842 186.566 219.282 186.566 219.81C186.566 220.338 186.121 220.778 185.587 220.866C185.053 220.866 173.042 221.307 171.174 235.831C171.085 236.359 170.64 236.711 170.195 236.711Z" fill="#2764A5"/>
<path d="M181.049 242.522H180.96C180.426 242.434 179.981 241.993 180.07 241.377C181.671 228.349 193.06 227.997 193.238 227.997C193.771 227.997 194.216 228.437 194.305 228.965C194.305 229.494 193.86 229.934 193.327 230.022C192.971 230.022 183.54 230.374 182.205 241.641C182.027 242.081 181.582 242.522 181.049 242.522Z" fill="#2764A5"/>
<path d="M131.046 215.937C130.246 215.849 129.623 215.233 129.712 214.529C131.046 193.226 122.149 185.568 122.06 185.48C121.527 185.04 121.438 184.159 121.882 183.631C122.327 183.103 123.217 183.015 123.751 183.455C124.196 183.807 133.805 191.994 132.381 214.793C132.381 215.409 131.758 215.937 131.046 215.937Z" fill="#E7EEFD"/>
<path d="M138.523 215.938C137.811 215.938 137.277 215.409 137.188 214.793C134.341 190.146 140.035 184.072 140.747 183.456C141.281 182.927 142.17 183.015 142.704 183.544C143.238 184.072 143.149 184.952 142.615 185.392C142.526 185.568 137.188 191.29 139.946 214.441C140.035 215.145 139.501 215.85 138.79 215.938C138.612 215.938 138.523 215.938 138.523 215.938Z" fill="#E7EEFD"/>
<path d="M427.014 224.037C427.014 224.037 402.261 190.354 422.3 162.558C422.3 162.558 422.274 174.962 429.036 183.869C429.086 183.992 440.577 208.762 427.014 224.037Z" fill="#2764A5"/>
<path d="M466.65 246.293C466.65 246.293 456.498 267.254 429.81 249.323C429.81 249.323 430.446 240.73 445.716 243.031C448.101 243.409 450.452 244.371 452.472 245.681C455.204 247.413 460.221 249.278 466.65 246.293Z" fill="#2764A5"/>
<path d="M474.967 193.776C474.967 193.776 427.542 197.608 428.167 236.558C428.167 236.558 436.159 238.55 447.374 231.8C454.734 227.348 460.319 220.379 463.71 212.218C465.607 207.622 469.013 201.184 474.967 193.776Z" fill="#B3CDFA"/>
<path d="M416.446 210.463C416.446 210.463 410.208 196.596 391.454 203.984C391.454 203.984 410.201 209.648 404.536 218.133C404.536 218.133 399.9 231.001 407.156 240.006C407.156 240.006 426.679 225.635 416.446 210.463Z" fill="#1B4ACB"/>
<path d="M400.766 265.892C400.682 265.854 400.682 265.854 400.598 265.817C400.212 265.542 400.045 264.961 400.33 264.483C403.155 259.793 403.932 253.776 404.608 248.522L408.579 217.968C408.798 216.652 408.934 215.298 408.633 214.05C408.215 212.345 406.974 210.977 405.883 209.98C403.871 208.062 401.556 206.411 399.072 205.19C398.569 204.963 398.402 204.382 398.57 203.953C398.772 203.437 399.326 203.283 399.745 203.472C402.396 204.769 404.879 206.495 407.026 208.575C408.25 209.734 409.76 211.425 410.295 213.587C410.663 215.168 410.427 216.779 410.257 218.219L406.286 248.773C405.543 254.199 404.782 260.426 401.706 265.508C401.622 265.975 401.101 266.044 400.766 265.892Z" fill="#1B4ACB"/>
<path d="M220.257 132.505L219.119 115.666C219.012 114.081 218.791 112.502 218.451 110.939L210.991 76.3926C210.618 74.651 208.529 73.7102 206.786 74.4998C205.722 74.9814 205.077 76.0006 205.15 77.0814L206.446 95.9367C206.537 97.2415 205.801 98.4791 204.556 99.1231L187.938 107.713C184.536 109.472 182.408 112.742 182.346 116.31V116.713C182.244 122.162 183.393 127.571 185.714 132.594L190.259 142.445L195.664 148.885L217.404 147.059L219.544 139.421C220.178 137.164 220.421 134.829 220.262 132.505H220.257Z" fill="white"/>
<path d="M195.284 149.752L189.528 142.892L184.932 132.935C182.549 127.766 181.383 122.301 181.485 116.695V116.292C181.558 112.433 183.873 108.855 187.541 106.962L204.159 98.3774C205.115 97.8846 205.664 96.9718 205.596 95.9918L204.3 77.1365C204.204 75.6973 205.036 74.3589 206.434 73.7317C207.543 73.2277 208.806 73.2557 209.892 73.7933C210.894 74.2917 211.596 75.1709 211.822 76.2125L219.282 110.759C219.627 112.355 219.86 113.985 219.967 115.609L221.105 132.448C221.269 134.873 221.02 137.292 220.358 139.644L218.06 147.842L195.289 149.752H195.284ZM190.976 141.99L196.025 148.005L216.735 146.269L218.716 139.196C219.322 137.029 219.554 134.794 219.407 132.565L218.269 115.726C218.167 114.186 217.946 112.635 217.618 111.117L210.158 76.5709C210.039 76.0333 209.666 75.5741 209.122 75.3053C208.506 74.9973 207.758 74.9861 207.13 75.2661C206.383 75.6021 205.936 76.2965 205.987 77.0301L207.283 95.8854C207.396 97.515 206.474 99.0774 204.934 99.8726L188.316 108.457C185.203 110.065 183.234 113.083 183.177 116.325V116.729C183.075 122.088 184.184 127.307 186.465 132.246L190.965 141.996L190.976 141.99Z" fill="#2764A5"/>
<path d="M297.945 129.57C307.879 128.5 317.84 127.705 327.836 127.57C336.122 127.458 344.437 127.346 352.655 126.148C358.258 125.33 363.794 124.009 369.16 122.206C369.443 122.11 366.879 100.164 366.709 97.9464C366.092 89.9944 365.537 82.0144 364.071 74.1632C362.554 66.0263 360.188 57.9623 356.294 50.6095C350.968 40.5407 342.914 31.0543 333.485 24.5583C326.093 19.4622 317.552 15.6486 308.643 14.131C295.795 11.9414 282.137 16.4382 272.594 25.2303C266.736 30.6287 262.678 37.5391 260.17 45.0207C252.614 67.5663 260.47 92.0608 262.417 114.903C262.87 120.234 263.306 125.818 266.181 130.348C268.462 133.943 274.852 132.37 278.345 131.927C284.871 131.098 291.402 130.281 297.945 129.575V129.57Z" fill="#2764A5"/>
<path d="M189.982 125.04C189.461 125.04 188.952 124.911 188.476 124.659C187.203 123.976 186.235 122.464 185.522 120.028C185.392 119.58 185.652 119.115 186.099 118.986C186.552 118.857 187.022 119.115 187.152 119.558C187.865 121.988 188.703 122.867 189.286 123.175C189.659 123.377 190.056 123.41 190.486 123.276C190.955 123.13 191.363 122.8 191.595 122.363C195.093 115.817 188.873 108.503 188.81 108.43C188.505 108.077 188.544 107.545 188.901 107.249C189.257 106.946 189.789 106.985 190.095 107.338C190.384 107.669 197.136 115.581 193.095 123.147C192.653 123.976 191.878 124.609 190.978 124.883C190.644 124.984 190.305 125.034 189.976 125.034L189.982 125.04Z" fill="#2764A5"/>
<path d="M196.828 125.045C195.651 125.045 194.213 124.496 192.827 122.536C192.555 122.155 192.651 121.634 193.036 121.366C193.421 121.097 193.947 121.192 194.219 121.573C195.379 123.214 196.574 123.723 197.864 123.124C198.492 122.833 198.996 122.312 199.279 121.651C203.813 111.039 196.285 104.123 196.206 104.056C195.86 103.742 195.832 103.216 196.149 102.869C196.466 102.527 196.998 102.499 197.349 102.807C197.434 102.886 205.845 110.608 200.847 122.306C200.4 123.354 199.596 124.182 198.588 124.647C198.141 124.854 197.536 125.05 196.834 125.05L196.828 125.045Z" fill="#2764A5"/>
<path d="M204.469 122.329C203.937 122.329 203.433 122.194 202.986 121.937C201.979 121.349 201.26 120.128 200.847 118.314C200.745 117.86 201.033 117.412 201.492 117.311C201.95 117.21 202.403 117.496 202.505 117.95C202.805 119.277 203.269 120.156 203.846 120.498C204.169 120.688 204.554 120.71 205.012 120.576C205.697 120.374 206.258 119.887 206.558 119.238C211.142 109.309 205.001 99.3408 204.939 99.24C204.69 98.848 204.814 98.3272 205.21 98.0808C205.607 97.8344 206.133 97.9576 206.382 98.3496C206.659 98.7864 213.072 109.169 208.103 119.932C207.599 121.024 206.648 121.847 205.493 122.183C205.143 122.284 204.803 122.334 204.469 122.334V122.329Z" fill="#2764A5"/>
<path d="M271.179 270.707L234.893 196.411L239.822 180.042C247.701 153.874 271.711 135.702 299.298 135.03L349.785 133.792C376.019 133.148 399.961 148.486 410.11 172.426L413.789 181.112L364.886 270.707H271.179Z" fill="#5E9AD9"/>
<path d="M365.395 271.547H270.646L233.986 196.484L239.007 179.802C247.016 153.207 271.235 134.873 299.275 134.19L349.762 132.952C362.803 132.627 375.487 136.172 386.439 143.189C397.391 150.2 405.847 160.202 410.89 172.107L414.727 181.162L414.535 181.515L365.389 271.547H365.395ZM271.71 269.867H364.382L412.854 181.067L409.328 172.751C399.242 148.957 375.871 133.999 349.807 134.632L299.32 135.87C272.016 136.536 248.431 154.389 240.637 180.283L235.803 196.339L271.71 269.867Z" fill="#2764A5"/>
<path d="M290.447 231.994L287.979 230.617C285.737 229.362 285.12 226.439 286.671 224.406C288.058 222.586 290.65 222.189 292.529 223.499L302.344 230.359C302.344 230.359 293.514 230.74 290.441 231.994H290.447Z" fill="white"/>
<path d="M290.388 232.924L287.564 231.344C286.279 230.628 285.374 229.396 285.074 227.973C284.774 226.545 285.113 225.061 285.996 223.896C287.666 221.701 290.756 221.225 293.026 222.81L304.872 231.087L302.388 231.193C302.303 231.193 293.671 231.58 290.773 232.767L290.388 232.924ZM290.071 223.56C289.041 223.56 288.022 224.025 287.349 224.91C286.755 225.688 286.534 226.68 286.732 227.632C286.93 228.584 287.536 229.407 288.396 229.883L290.519 231.07C292.816 230.281 297.158 229.86 299.886 229.664L292.047 224.188C291.447 223.768 290.756 223.566 290.077 223.566L290.071 223.56Z" fill="#2764A5"/>
<path d="M187.818 155.879L210.923 235.556C216.956 256.365 236.189 270.701 258.07 270.701H271.179V247.081L226.357 147.462C224.79 143.979 221.122 141.901 217.296 142.332L195.324 144.78C189.89 145.384 186.313 150.676 187.818 155.879Z" fill="#5E9AD9"/>
<path d="M271.179 271.547H258.071C235.934 271.547 216.209 256.847 210.108 235.791L187.003 156.114C186.217 153.398 186.675 150.492 188.266 148.145C189.856 145.799 192.392 144.27 195.233 143.951L217.205 141.504C221.422 141.028 225.412 143.296 227.139 147.126L256.927 213.335C257.12 213.76 256.927 214.253 256.497 214.444C256.067 214.634 255.569 214.444 255.376 214.018L225.588 147.809C224.167 144.645 220.873 142.78 217.398 143.172L195.426 145.62C193.082 145.883 190.988 147.143 189.681 149.08C188.373 151.018 187.994 153.415 188.639 155.655L211.743 235.332C217.641 255.665 236.693 269.867 258.076 269.867H271.185C271.655 269.867 272.034 270.242 272.034 270.707C272.034 271.172 271.655 271.547 271.185 271.547H271.179Z" fill="#2764A5"/>
<path d="M272.822 223.566C272.431 223.566 272.08 223.297 271.995 222.905L266.296 197.072C266.194 196.618 266.488 196.17 266.946 196.07C267.405 195.969 267.858 196.26 267.96 196.714L273.659 222.546C273.761 223 273.467 223.448 273.008 223.549C272.946 223.56 272.884 223.566 272.827 223.566H272.822Z" fill="#2764A5"/>
<path d="M275.351 267.459L269.561 271.486L270.042 264.15L301.257 210.653C302.089 209.23 303.9 208.693 305.383 209.432C306.99 210.233 307.59 212.21 306.685 213.755L275.345 267.459H275.351Z" fill="#2764A5"/>
<path d="M325.142 238.484L317.846 236.485L303.034 230.616C300.165 229.888 297.136 229.95 294.335 230.896C278.821 236.138 276.783 249.382 276.647 255.038C276.613 256.443 277.83 257.558 279.245 257.435L283.394 257.06L291.363 265.784C295.206 269.99 301.121 271.681 306.64 270.158L317.433 267.173L325.306 263.186L325.148 238.484H325.142Z" fill="white"/>
<path d="M302.519 271.553C298.081 271.553 293.808 269.716 290.723 266.344L283.037 257.933L279.313 258.269C278.396 258.353 277.484 258.04 276.811 257.418C276.143 256.796 275.769 255.923 275.792 255.016C275.928 249.332 277.982 235.533 294.057 230.101C296.966 229.121 300.141 229.015 303.243 229.799L303.351 229.832L318.118 235.684L325.991 237.84L326.16 263.696L317.659 267.974L306.865 270.959C305.428 271.357 303.968 271.553 302.524 271.553H302.519ZM283.727 256.18L291.98 265.213C295.63 269.212 301.155 270.791 306.396 269.341L317.11 266.378L324.445 262.665L324.293 239.117L317.523 237.258L302.762 231.412C300 230.717 297.176 230.818 294.6 231.686C279.539 236.776 277.615 249.718 277.484 255.049C277.473 255.486 277.643 255.889 277.965 256.186C278.288 256.488 278.713 256.628 279.154 256.589L283.722 256.18H283.727Z" fill="#2764A5"/>
<path d="M413.149 179.925C413.149 179.925 463.331 269.458 416.002 270.707H336.722C329.885 270.707 324.344 265.224 324.344 258.46V242.085C324.344 235.69 329.319 230.37 335.766 229.872L365.085 227.626L365.203 201.715L413.149 179.919V179.925Z" fill="#5E9AD9"/>
<path d="M380.331 194.838C370.443 222.726 348.199 228.6 348.199 228.6L386.342 224.888L380.331 194.838Z" fill="#2764A5"/>
<path d="M336.722 271.547C329.426 271.547 323.494 265.678 323.494 258.46V242.085C323.494 235.293 328.854 229.558 335.703 229.037L393.208 224.053C393.678 224.014 394.086 224.356 394.125 224.815C394.165 225.28 393.82 225.683 393.356 225.722L335.844 230.706C329.867 231.165 325.198 236.161 325.198 242.08V258.454C325.198 264.743 330.371 269.861 336.727 269.861H416.007C423.84 269.654 429.376 266.871 432.438 261.585C445.292 239.369 412.52 180.071 412.192 179.472C411.966 179.063 412.113 178.553 412.526 178.329C412.939 178.105 413.454 178.251 413.681 178.66C415.056 181.129 447.245 239.386 433.915 262.419C430.542 268.249 424.525 271.317 416.035 271.541H336.733L336.722 271.547Z" fill="#2764A5"/>
<path d="M283.387 257.894C283.387 257.894 283.336 257.894 283.308 257.894C282.844 257.849 282.499 257.446 282.538 256.981C282.567 256.673 283.308 249.376 290.196 246.425C290.626 246.24 291.124 246.436 291.311 246.862C291.498 247.288 291.3 247.78 290.87 247.965C284.927 250.513 284.236 257.065 284.231 257.132C284.191 257.569 283.817 257.894 283.387 257.894Z" fill="#2764A5"/>
<path d="M288.261 262.827C288.199 262.827 288.136 262.822 288.069 262.805C287.61 262.704 287.327 262.251 287.429 261.803C287.486 261.567 288.816 256.006 293.915 255.525C294.385 255.474 294.798 255.822 294.844 256.281C294.889 256.746 294.544 257.155 294.079 257.199C290.208 257.563 289.127 261.987 289.087 262.178C288.997 262.564 288.646 262.827 288.261 262.827Z" fill="#2764A5"/>
<path d="M293.665 267.907C293.603 267.907 293.541 267.901 293.473 267.884C293.014 267.783 292.731 267.33 292.833 266.882C292.89 266.647 294.22 261.086 299.325 260.604C299.784 260.559 300.208 260.901 300.254 261.36C300.299 261.819 299.954 262.234 299.489 262.279C295.618 262.643 294.537 267.067 294.497 267.251C294.407 267.638 294.056 267.901 293.671 267.901L293.665 267.907Z" fill="#2764A5"/>
<path d="M325.284 94.687L332.274 129.687C332.75 132.061 334.731 133.853 337.164 134.1L350.901 133.775L345.264 139.823C328.935 157.351 300.55 155.962 286.049 136.922L293.588 135.421C295.677 135.214 297.199 133.932 297.199 131.854V96.395L325.278 94.6926L325.284 94.687Z" fill="white"/>
<path d="M316.9 152.973C316.244 152.973 315.587 152.956 314.93 152.922C303.209 152.346 292.438 146.701 285.374 137.427L284.564 136.363L293.507 134.588C295.29 134.409 296.354 133.39 296.354 131.855V95.6007L325.973 93.8031L333.11 129.52C333.512 131.53 335.154 133.026 337.203 133.255L352.881 132.886L345.885 140.39C338.38 148.448 327.903 152.967 316.894 152.967L316.9 152.973ZM287.564 137.478C294.322 145.721 304.25 150.716 315.01 151.242C326.228 151.797 337.021 147.423 344.634 139.253L348.913 134.661L337.123 134.941H337.072C334.248 134.644 331.984 132.606 331.435 129.85L324.586 95.5727L298.041 97.1855V131.855C298.041 134.252 296.343 135.977 293.705 136.251L287.553 137.478H287.564Z" fill="#2764A5"/>
<path d="M344.746 78.0663C344.849 72.8837 340.686 68.5996 335.448 68.4974C330.21 68.3951 325.88 72.5135 325.777 77.6961C325.674 82.8786 329.836 87.1627 335.074 87.2649C340.312 87.3672 344.642 83.2488 344.746 78.0663Z" fill="white"/>
<path d="M335.268 88.1129C334.99 88.1129 334.713 88.1017 334.436 88.0793C328.753 87.6313 324.508 82.692 324.961 77.0696C325.414 71.4528 330.411 67.2416 336.088 67.6952C341.765 68.1432 346.016 73.0824 345.563 78.7048C345.127 84.0472 340.594 88.1129 335.268 88.1129ZM335.256 69.3416C330.802 69.3416 327.015 72.7352 326.653 77.204C326.274 81.8968 329.823 86.024 334.572 86.4048C339.315 86.7801 343.486 83.2688 343.871 78.5704C344.25 73.872 340.701 69.7504 335.953 69.3696C335.721 69.3528 335.488 69.3416 335.256 69.3416Z" fill="#2764A5"/>
<path d="M336.796 54.4177C336.796 54.4177 341.267 116.88 296.711 117.037C252.156 117.194 276.72 38.9953 276.72 38.9953C276.72 38.9953 310.216 6.59921 336.796 54.4177Z" fill="white"/>
<path d="M296.575 117.877C287.615 117.877 280.733 114.741 276.109 108.559C260.702 87.9393 275.277 40.748 275.905 38.7488C276.046 38.3064 276.522 38.06 276.969 38.1944C277.416 38.3344 277.665 38.8048 277.529 39.2472C277.377 39.7288 262.581 87.6257 277.478 107.562C281.763 113.296 288.187 116.203 296.581 116.203H296.711C314.348 116.141 326.302 106.24 332.256 86.7745C332.392 86.3321 332.862 86.0801 333.314 86.2145C333.762 86.3489 334.016 86.8193 333.88 87.2617C327.773 107.231 314.925 117.815 296.717 117.883H296.581L296.575 117.877Z" fill="#2764A5"/>
<path d="M295.031 38.1549C289.06 50.4581 276.144 59.1493 262.424 60.0901C263.341 49.6797 267.54 39.6893 273.642 31.1661C276.574 27.0669 280.021 23.2141 284.385 20.6549C291.448 16.5053 300.204 16.1805 308.27 17.6533C319.856 19.7701 330.752 25.4261 339.106 33.6637C346.22 40.6749 350.522 49.0021 352.944 58.5725C353.312 60.0229 354.195 61.2549 354.676 62.6605C355.203 64.1949 355.056 65.8021 354.495 67.3085C353.805 69.1621 352.656 70.7694 350.556 70.971C348.467 71.167 346.249 70.5957 344.16 70.5005C341.404 70.3717 338.664 70.0694 335.959 69.543C325.114 67.4485 314.915 62.1677 306.917 54.6077C301.965 49.9261 297.861 44.3485 295.031 38.1605V38.1549Z" fill="#2764A5"/>
<path d="M215.354 108.491L199.172 110.883C198.464 110.989 197.983 111.599 198.097 112.243C198.578 114.959 201.385 116.807 204.368 116.365L209.507 115.603L210.09 118.885C205.783 124.334 209.835 133.781 209.835 133.781L217.397 132.202L215.354 108.486V108.491Z" fill="white"/>
<path d="M209.837 134.621C209.508 134.621 209.191 134.431 209.056 134.111C208.886 133.714 205.003 124.474 209.191 118.678L208.818 116.561L204.499 117.199C201.075 117.703 197.832 115.547 197.266 112.389C197.175 111.868 197.294 111.342 197.611 110.905C197.945 110.446 198.471 110.132 199.049 110.048L215.231 107.657C215.695 107.584 216.125 107.903 216.199 108.363C216.266 108.822 215.95 109.247 215.485 109.32L199.303 111.711C199.173 111.734 199.06 111.795 198.992 111.885C198.941 111.952 198.924 112.019 198.941 112.092C199.343 114.36 201.726 115.9 204.25 115.531L210.205 114.651L210.997 119.109L210.765 119.406C206.814 124.407 210.584 133.361 210.623 133.451C210.805 133.876 210.606 134.369 210.176 134.554C210.069 134.599 209.956 134.621 209.842 134.621H209.837Z" fill="#2764A5"/>
<path d="M121.098 245.805C114.278 245.805 108.748 251.276 108.748 258.024C108.748 264.772 114.278 270.243 121.098 270.243H172.65V245.799H121.098V245.805Z" fill="white"/>
<path d="M170.086 270.254C168.558 266.474 167.715 262.347 167.715 258.029C167.715 253.712 168.558 249.584 170.086 245.804H266.352C264.824 249.584 263.98 253.706 263.98 258.029C263.98 262.352 264.824 266.474 266.352 270.254H170.086Z" fill="white"/>
<path d="M267.602 271.094H169.508L169.293 270.568C167.68 266.581 166.865 262.364 166.865 258.029C166.865 253.695 167.68 249.478 169.293 245.497L169.508 244.97H267.602L267.138 246.124C265.604 249.909 264.829 253.919 264.829 258.035C264.829 262.151 265.604 266.161 267.138 269.946L267.602 271.1V271.094ZM170.663 269.414H265.123C263.804 265.769 263.136 261.944 263.136 258.029C263.136 254.115 263.804 250.29 265.123 246.645H170.669C169.276 250.273 168.569 254.104 168.569 258.029C168.569 261.955 169.276 265.78 170.669 269.414H170.663Z" fill="#2764A5"/>
<path d="M270.159 244.506H157.242V247.11H270.159V244.506Z" fill="#2764A5"/>
<path d="M270.159 268.949H157.242V271.553H270.159V268.949Z" fill="#2764A5"/>
<path d="M178.581 271.548H121.093C113.554 271.548 107.424 265.483 107.424 258.024C107.424 250.565 113.554 244.5 121.093 244.5H178.581V247.104H121.093C115.008 247.104 110.056 252.004 110.056 258.024C110.056 264.044 115.008 268.944 121.093 268.944H178.581V271.548Z" fill="#2764A5"/>
<path d="M249.131 207.836H175.783V211.364H249.131V207.836Z" fill="#2764A5"/>
<path d="M249.131 240.96H175.783V244.488H249.131V240.96Z" fill="#2764A5"/>
<path d="M126.797 209.601C117.554 209.601 110.055 217.015 110.055 226.166C110.055 235.316 117.549 242.73 126.797 242.73H178.948V209.606H126.797V209.601Z" fill="white"/>
<path d="M162.602 242.73C160.53 237.606 159.393 232.018 159.393 226.166C159.393 220.314 160.53 214.719 162.602 209.601H243.97C241.899 214.725 240.761 220.314 240.761 226.166C240.761 232.018 241.899 237.612 243.97 242.73H162.602Z" fill="white"/>
<path d="M245.22 243.571H162.024L161.809 243.044C159.635 237.674 158.537 231.995 158.537 226.166C158.537 220.336 159.635 214.658 161.809 209.287L162.024 208.761H245.22L244.756 209.914C242.668 215.083 241.609 220.549 241.609 226.166C241.609 231.782 242.668 237.254 244.756 242.423L245.22 243.576V243.571ZM163.178 241.891H242.73C240.856 236.862 239.905 231.581 239.905 226.166C239.905 220.75 240.856 215.464 242.73 210.441H163.178C161.226 215.453 160.241 220.739 160.241 226.166C160.241 231.592 161.231 236.879 163.184 241.891H163.178Z" fill="#2764A5"/>
<path d="M178.954 244.488H126.803C116.586 244.488 108.277 236.268 108.277 226.16C108.277 216.052 116.586 207.836 126.803 207.836H178.954V211.364H126.803C118.556 211.364 111.843 218.006 111.843 226.165C111.843 234.324 118.556 240.966 126.803 240.966H178.954V244.494V244.488Z" fill="#2764A5"/>
<path d="M153.897 238.217L146.37 234.913L138.842 238.217V223.903H153.897V238.217Z" fill="#2764A5"/>
<path d="M34.3624 217.032C35.3934 212.441 38.7443 208.871 42.6106 206.576C46.7347 204.281 51.3743 203.516 55.7562 203.005C54.7251 206.321 56.7872 209.891 57.8182 213.206C59.107 217.032 59.3647 221.367 58.076 225.193C57.3027 227.488 56.0139 229.273 53.9519 230.803C52.1476 232.333 49.8278 232.588 47.7657 233.353C46.7347 233.863 45.7037 234.373 44.4149 234.628C42.6106 234.628 41.3218 233.353 40.2908 231.823C39.5175 230.548 39.002 229.273 37.971 228.253C37.1977 227.233 36.1667 226.468 35.3934 225.193C34.3624 222.642 33.8469 219.582 34.3624 217.032Z" fill="#E7EEFD"/>
<path d="M24.0487 204.535C23.2755 199.945 25.0798 195.355 27.9151 191.784C30.7504 188.214 34.8745 185.664 38.9986 183.624C39.2563 187.194 42.3494 189.744 44.6692 192.294C47.2468 195.355 49.3088 199.18 49.3088 203.26C49.3088 205.556 48.7933 207.851 47.5045 209.891C46.2158 211.931 44.4115 212.951 42.6072 214.481C41.5762 215.246 41.0606 216.267 39.7719 216.777C38.2253 217.542 36.421 216.777 34.8745 215.757C33.5857 214.991 32.5547 213.971 31.5237 213.206C30.2349 212.441 29.2039 212.186 27.9151 211.166C25.853 209.636 24.5642 207.086 24.0487 204.535Z" fill="#B3CDFA"/>
<path d="M11.421 221.367C11.9365 217.797 13.2252 214.227 13.9985 210.911C14.7718 207.341 15.0295 203.516 14.7718 199.69C18.8959 204.536 26.6286 204.536 31.7837 208.106C34.8768 210.146 37.1966 213.206 38.4854 216.777C39.7741 220.602 40.0319 224.683 38.2276 228.508C38.2276 228.763 37.9698 228.763 37.9698 229.018C37.4543 230.038 36.9388 231.313 36.4233 232.333C36.1655 232.843 35.9078 233.608 35.3923 233.608C35.1345 233.608 34.8768 233.608 34.619 233.608C32.557 233.608 30.7527 234.373 28.9484 234.628C27.1441 234.883 25.3398 234.883 23.5355 234.883C20.1847 234.883 16.5761 233.863 14.2563 231.313C11.421 229.018 10.9054 224.938 11.421 221.367Z" fill="#5E9AD9"/>
<path d="M44.156 240.239H43.125C43.6405 229.273 45.187 218.051 51.1154 208.871L51.8887 209.381C46.2181 218.307 44.6715 229.528 44.156 240.239Z" fill="#E7EEFD"/>
<path d="M39.2573 240.239C37.4531 233.099 37.9686 222.643 38.4841 211.677C38.7418 206.576 38.9996 201.476 38.9996 196.63H40.0306C40.0306 201.476 39.7729 206.831 39.5151 211.932C38.9996 222.898 38.7418 233.099 40.2884 240.239H39.2573Z" fill="#B3CDFA"/>
<path d="M35.9067 240.238C33.5869 229.527 27.9162 219.326 19.9258 211.676L20.699 210.911C28.6895 218.816 34.6179 229.017 36.9377 239.983L35.9067 240.238Z" fill="#5E9AD9"/>
<path d="M55.801 259.221C55.801 264.12 55.4671 267.955 53.4671 270.627C51.5514 273.187 47.7699 275.063 39.7735 275.063C32.6451 275.063 28.8365 273.853 26.7097 271.576C24.5594 269.273 23.7461 265.487 23.7461 259.221V241.084H55.801V259.221Z" fill="#E7EEFD" stroke="#E7EEFD" stroke-width="3"/>
</g>
</svg>
