<svg width="480" height="280" viewBox="0 0 480 280" fill="none" xmlns="http://www.w3.org/2000/svg">
<mask id="mask0_898_7451" style="mask-type:alpha" maskUnits="userSpaceOnUse" x="0" y="0" width="480" height="280">
<rect width="480" height="280" fill="#D9D9D9"/>
</mask>
<g mask="url(#mask0_898_7451)">
<g clip-path="url(#clip0_898_7451)">
<path d="M16.2348 271.231L2.82721 183.613C1.15605 172.705 8.19024 162.354 18.9785 159.841L89.7944 143.347L144.432 271.236H16.2348V271.231Z" fill="#5E9AD9"/>
<path d="M16.5215 198.432L27.1566 271.231L101.865 271.064L36.3264 196.333L16.5215 198.432Z" fill="#2764A5"/>
<path d="M159.891 271.947H15.6159L2.11738 183.718C0.403131 172.514 7.73898 161.72 18.8146 159.14L90.1668 142.523L90.4254 143.004L159.891 271.947ZM16.8466 270.516H157.487L89.4198 144.163L19.1402 160.533C8.78765 162.946 1.93543 173.034 3.53476 183.503L16.8466 270.516Z" fill="#2764A5"/>
<path d="M180.242 250.039L217.578 249.801C221.849 249.772 226.034 250.969 229.64 253.249C231.502 254.427 232.632 256.474 232.632 258.672V262.126C232.632 264.52 231.296 266.714 229.166 267.82L227.423 268.727C224.248 270.377 220.724 271.236 217.142 271.236H178.495L172.672 264.954L180.247 250.044L180.242 250.039Z" fill="#B3CDFA"/>
<path d="M217.136 271.947H178.172L171.799 265.069L179.795 249.329L217.567 249.086C221.967 249.052 226.286 250.288 230.016 252.644C232.099 253.96 233.344 256.212 233.344 258.668V262.121C233.344 264.792 231.87 267.215 229.49 268.451L227.747 269.357C224.486 271.05 220.813 271.947 217.136 271.947ZM178.8 270.516H217.136C220.583 270.516 224.026 269.676 227.086 268.088L228.829 267.182C230.73 266.195 231.908 264.258 231.908 262.121V258.668C231.908 256.703 230.912 254.905 229.25 253.851C225.755 251.642 221.709 250.493 217.581 250.512L180.686 250.75L173.537 264.826L178.809 270.511L178.8 270.516Z" fill="#2764A5"/>
<path d="M64.4246 256.326C64.4246 256.326 14.5724 195.193 33.1754 139.04C37.0205 127.436 44.9884 117.634 55.5421 111.41C56.1741 111.038 56.8924 110.842 57.6298 110.842H84.986C85.6085 110.842 86.2262 110.985 86.7817 111.257L101.655 118.497C118.026 126.467 128.407 143.028 128.407 161.176V233.927L64.4198 256.33L64.4246 256.326Z" fill="#5E9AD9"/>
<path d="M64.185 257.166L63.8642 256.774C63.7397 256.622 51.2275 241.163 41.1671 219.032C35.2534 206.026 31.3269 193.281 29.4977 181.157C27.2041 165.975 28.2096 151.728 32.4905 138.812C36.3787 127.074 44.4328 117.124 55.1732 110.79C55.9154 110.351 56.763 110.122 57.6249 110.122H84.9811C85.7089 110.122 86.4415 110.289 87.0928 110.609L101.966 117.849C110.12 121.818 116.968 127.97 121.775 135.635C126.583 143.305 129.121 152.133 129.121 161.172V234.429L64.1754 257.166H64.185ZM57.6297 111.553C57.0263 111.553 56.4326 111.715 55.9106 112.021C45.4719 118.174 37.638 127.846 33.86 139.26C24.3262 168.035 33.2806 198.184 42.4695 218.408C51.5675 238.43 62.6814 252.944 64.6734 255.477L127.699 233.413V161.172C127.699 143.424 117.356 126.926 101.348 119.132L86.4751 111.892C86.0154 111.668 85.503 111.549 84.9907 111.549H57.6344L57.6297 111.553Z" fill="#2764A5"/>
<path d="M158.329 262.622L211.462 217.267C218.467 211.606 219.927 201.532 214.813 194.13C210.686 188.149 203.235 185.387 196.186 187.224L105.432 210.848L106.935 266.018L158.334 262.627L158.329 262.622Z" fill="#2764A5"/>
<path d="M170.976 250.908L103.594 210.58L196.001 186.522C203.317 184.614 211.118 187.51 215.398 193.72C220.685 201.375 219.148 211.964 211.908 217.821L170.976 250.908ZM107.257 211.105L170.852 249.167L211.003 216.709C217.668 211.32 219.081 201.58 214.216 194.53C210.27 188.816 203.097 186.155 196.365 187.91L107.257 211.105Z" fill="#2764A5"/>
<path d="M134.503 207.07H93.7297C88.9509 207.07 85.2877 202.834 86.0012 198.122L94.8167 139.794C95.4918 135.33 99.3417 132.029 103.872 132.029H144.645C149.424 132.029 153.087 136.264 152.373 140.977L143.558 199.305C142.883 203.769 139.033 207.07 134.503 207.07Z" fill="#2764A5"/>
<path d="M100.784 181.18L116.064 176.916C116.609 176.73 117.241 176.925 117.519 177.431C117.754 177.865 117.706 178.409 116.566 178.852L101.344 186.279L94.3145 190.471C93.1078 191.191 91.7001 191.511 90.3018 191.387C88.5876 191.234 87.1846 190.018 86.7728 188.396C86.6914 188.086 86.3945 187.881 86.0785 187.948L81.6013 188.897L79.5566 179.415C79.5566 179.415 86.1072 177.474 86.1072 177.064C86.1359 172.943 86.5238 168.836 87.6969 166.175C91.0728 158.491 91.9922 166.008 91.9922 166.008L93.194 171.722L112.376 165.13C112.922 164.944 113.554 165.14 113.832 165.645C114.067 166.079 114.019 166.623 112.879 167.067L97.6568 174.493L116.193 168.021C116.739 167.835 117.371 168.03 117.648 168.536C117.883 168.97 117.835 169.513 116.696 169.957L99.6249 177.875L116.475 172.366C117.021 172.18 117.653 172.375 117.931 172.881C118.166 173.315 118.118 173.859 116.978 174.302L100.793 181.185L100.784 181.18Z" fill="white"/>
<path d="M90.8992 192.131C90.679 192.131 90.4587 192.122 90.2336 192.103C88.2704 191.931 86.6184 190.557 86.0964 188.678L81.0399 189.751L78.7031 178.924L79.34 178.733C81.7486 178.018 84.5402 177.102 85.383 176.706C85.4404 171.884 85.9911 168.245 87.0302 165.893C88.2847 163.046 89.3669 161.849 90.5353 162.02C92.1059 162.249 92.58 165.002 92.6949 165.893L93.7244 170.782L112.141 164.453C113.031 164.148 114.027 164.51 114.458 165.302C114.736 165.812 114.678 166.242 114.578 166.518C114.391 167.024 113.931 167.42 113.165 167.725L108.861 169.824L115.952 167.348C116.848 167.043 117.844 167.405 118.275 168.192C118.552 168.703 118.495 169.132 118.394 169.409C118.208 169.924 117.738 170.32 116.953 170.625L110.876 173.444L116.244 171.689C117.125 171.388 118.121 171.751 118.552 172.538C118.83 173.048 118.773 173.477 118.672 173.754C118.485 174.269 118.016 174.665 117.231 174.97L111.197 177.536L115.866 176.234C116.714 175.938 117.71 176.306 118.145 177.093C118.423 177.603 118.366 178.032 118.265 178.304C118.078 178.81 117.619 179.205 116.852 179.511L101.683 186.913L94.6773 191.087C93.5233 191.773 92.2256 192.131 90.8944 192.131H90.8992ZM86.1922 187.223C86.7812 187.223 87.3127 187.624 87.4611 188.225C87.8011 189.57 88.9647 190.557 90.3581 190.681C91.6175 190.796 92.8529 190.51 93.9399 189.866L101.022 185.644L116.297 178.194C116.757 178.013 116.881 177.865 116.905 177.827C116.905 177.822 116.896 177.803 116.881 177.779C116.781 177.598 116.522 177.517 116.292 177.598L100.974 181.876L100.5 180.531L116.685 173.654C117.159 173.468 117.288 173.315 117.312 173.277C117.312 173.272 117.303 173.253 117.288 173.229C117.188 173.048 116.929 172.967 116.699 173.048L99.8392 178.562L99.3125 177.231L116.383 169.313C116.876 169.118 117.006 168.965 117.034 168.927C117.034 168.922 117.025 168.903 117.01 168.879C116.91 168.698 116.651 168.622 116.421 168.698L97.8855 175.17L97.3301 173.854L112.605 166.404C113.065 166.223 113.189 166.075 113.213 166.037C113.213 166.032 113.204 166.013 113.189 165.989C113.089 165.808 112.83 165.731 112.6 165.808L92.647 172.666L91.2679 166.099C91.1051 164.768 90.6119 163.523 90.3198 163.437C90.3198 163.437 89.6303 163.537 88.3422 166.466C87.3606 168.698 86.8482 172.266 86.8147 177.073C86.8147 177.641 86.8099 177.994 80.3839 179.916L82.1412 188.053L85.9193 187.252C86.0102 187.233 86.1012 187.223 86.1922 187.223Z" fill="#2764A5"/>
<path d="M55.5414 111.41C55.5414 111.41 7.25505 139.393 13.049 186.66C17.9667 226.792 66.0376 203.349 80.4316 195.36C82.936 193.972 84.4874 191.344 84.4874 188.492V184.261C84.4874 179.501 80.2736 175.833 75.5379 176.468L41.5257 181.037L61.3163 132.959L55.5414 111.41Z" fill="#5E9AD9"/>
<path d="M37.3467 210.166C32.769 210.166 28.4451 209.383 24.7005 207.485C17.7525 203.965 13.5962 196.987 12.3368 186.742C9.31055 162.064 21.1331 142.718 31.5863 130.837C42.8821 117.992 55.0639 110.862 55.1836 110.79C55.5283 110.59 55.9641 110.709 56.1652 111.048C56.3663 111.391 56.2466 111.825 55.9066 112.025C55.7869 112.097 43.7776 119.132 32.6397 131.81C22.3973 143.467 10.8093 162.431 13.7638 186.57C14.9561 196.315 18.8586 202.92 25.3517 206.212C28.9047 208.01 33.0228 208.754 37.3946 208.754C52.8037 208.754 71.4354 199.529 80.0833 194.731C82.3578 193.472 83.7704 191.077 83.7704 188.488V184.257C83.7704 182.196 82.875 180.231 81.3187 178.877C79.7625 177.517 77.6891 176.897 75.6397 177.174L36.662 182.53C36.2693 182.583 35.9054 182.311 35.8527 181.92C35.8001 181.529 36.073 181.166 36.4657 181.114L75.4434 175.757C77.9094 175.424 80.3946 176.172 82.2621 177.799C84.1343 179.43 85.2069 181.781 85.2069 184.257V188.488C85.2069 191.597 83.5118 194.469 80.7824 195.981C72.0148 200.846 53.1533 210.166 37.3467 210.166Z" fill="#2764A5"/>
<path d="M179.619 253.345L173.653 263.747C172.537 265.693 170.196 266.58 168.06 265.87L106.931 245.46V266.013C106.931 268.803 104.662 271.059 101.865 271.059H92.4846C82.3667 271.059 72.7228 266.614 66.335 258.801C60.2394 251.346 54.8764 240.696 56.9785 227.431C58.4677 218.021 61.2833 210.995 64.3383 205.82C69.9694 196.276 81.1456 191.234 92.0105 193.572C94.1318 194.029 95.9849 194.702 97.1629 195.694C101.247 199.138 162.022 237.056 178.034 247.03C180.18 248.365 180.884 251.151 179.629 253.34L179.619 253.345Z" fill="#5E9AD9"/>
<path d="M101.866 271.78H92.4852C82.0178 271.78 72.2829 267.215 65.7754 259.255C57.7932 249.486 54.5035 238.445 56.2657 227.317C57.592 218.937 60.1012 211.582 63.7164 205.458C69.5727 195.532 81.0026 190.476 92.1596 192.876C94.6209 193.405 96.4596 194.173 97.6232 195.151C100.803 197.831 141.442 223.397 178.409 246.429C180.889 247.974 181.698 251.17 180.243 253.703L174.276 264.105C172.993 266.342 170.283 267.368 167.831 266.552L107.645 246.458V266.018C107.645 269.195 105.05 271.78 101.861 271.78H101.866ZM86.6194 193.715C77.871 193.715 69.5774 198.346 64.9566 206.183C61.4323 212.15 58.9903 219.338 57.6878 227.541C55.964 238.407 59.0621 248.771 66.8911 258.348C73.1257 265.97 82.4535 270.344 92.4852 270.344H101.866C104.265 270.344 106.214 268.398 106.214 266.013V244.464L168.291 265.188C170.096 265.789 172.088 265.035 173.031 263.39L178.998 252.987C180.065 251.127 179.472 248.776 177.647 247.641C159.686 236.451 100.769 199.677 96.6942 196.243C95.7126 195.413 94.0846 194.75 91.8532 194.273C90.1054 193.896 88.3528 193.715 86.6146 193.715H86.6194Z" fill="#2764A5"/>
<path d="M112.198 252.644H109.589C104.523 252.644 100.414 256.736 100.414 261.783C100.414 266.896 104.623 271.012 109.756 270.917L143.27 270.311C145.54 270.268 147.786 269.815 149.893 268.971L159.862 264.969C163.272 263.6 165.503 260.309 165.503 256.646C165.503 252.73 162.956 249.277 159.211 248.089C157.051 247.407 154.605 246.806 152.32 246.644C148.887 246.401 141.451 249.1 135.686 251.476C130.342 253.674 124.505 254.395 118.782 253.579L112.203 252.644H112.198Z" fill="#B3CDFA"/>
<path d="M109.584 271.637C106.98 271.637 104.523 270.64 102.66 268.813C100.75 266.943 99.7012 264.449 99.7012 261.782C99.7012 256.35 104.14 251.928 109.594 251.928L112.304 251.938L118.884 252.873C124.486 253.669 130.203 252.959 135.408 250.817C143.783 247.373 149.486 245.728 152.369 245.933C154.414 246.081 156.789 246.577 159.427 247.412C163.492 248.695 166.222 252.41 166.222 256.65C166.222 260.623 163.832 264.148 160.131 265.636L150.161 269.638C147.964 270.52 145.651 270.988 143.285 271.031L109.771 271.637C109.709 271.637 109.647 271.637 109.584 271.637ZM109.589 253.359C104.925 253.359 101.133 257.137 101.133 261.782C101.133 264.062 102.033 266.194 103.666 267.792C105.299 269.39 107.449 270.258 109.742 270.206L143.257 269.6C145.45 269.562 147.59 269.128 149.625 268.312L159.595 264.31C162.745 263.046 164.785 260.037 164.785 256.655C164.785 253.04 162.458 249.877 158.991 248.78C156.458 247.979 154.198 247.502 152.264 247.369C149.644 247.183 144.004 248.833 135.954 252.148C130.51 254.39 124.534 255.134 118.678 254.299L112.146 253.369H109.589V253.359Z" fill="#2764A5"/>
<path d="M132.961 252.735C133.085 252.859 133.248 252.921 133.416 252.921C133.583 252.921 133.746 252.859 133.87 252.735C134.043 252.563 134.086 252.32 134.024 252.105C133.602 252.253 133.176 252.391 132.75 252.52L132.965 252.735H132.961Z" fill="#2764A5"/>
<path d="M110.37 252.734C110.494 252.858 110.657 252.92 110.825 252.92C110.992 252.92 111.155 252.858 111.28 252.734L111.371 252.644H110.312C110.332 252.672 110.346 252.706 110.37 252.734Z" fill="#2764A5"/>
<path d="M162.601 262.584C162.395 262.784 162.367 263.089 162.496 263.328C162.798 263.061 163.075 262.775 163.339 262.469C163.099 262.35 162.802 262.384 162.601 262.584Z" fill="#2764A5"/>
<path d="M112.176 252.644L112.267 252.734C112.391 252.858 112.554 252.92 112.722 252.92C112.861 252.92 112.999 252.863 113.114 252.773L112.2 252.644H112.176Z" fill="#2764A5"/>
<path d="M131.961 252.744C131.773 252.796 131.582 252.849 131.395 252.897C131.438 252.906 131.481 252.921 131.524 252.921C131.682 252.921 131.841 252.858 131.961 252.744Z" fill="#2764A5"/>
<path d="M114.124 248.58C114.047 248.58 113.97 248.566 113.894 248.542L93.5573 241.631C93.1838 241.502 92.9827 241.096 93.1072 240.724C93.2365 240.352 93.6435 240.152 94.017 240.281L114.353 247.192C114.727 247.321 114.928 247.726 114.799 248.098C114.698 248.394 114.416 248.585 114.119 248.585L114.124 248.58Z" fill="#2764A5"/>
<path d="M188.751 266.733C188.699 266.733 188.641 266.729 188.584 266.714C188.196 266.624 187.957 266.237 188.052 265.851C189.297 260.609 188.076 256.579 188.067 256.536C187.952 256.159 188.162 255.759 188.541 255.639C188.919 255.52 189.321 255.73 189.441 256.107C189.498 256.283 190.796 260.533 189.455 266.175C189.379 266.505 189.082 266.729 188.756 266.729L188.751 266.733Z" fill="#2764A5"/>
<path d="M195.392 266.733C195.339 266.733 195.282 266.729 195.224 266.714C194.837 266.624 194.597 266.237 194.693 265.851C195.938 260.609 194.717 256.579 194.707 256.536C194.592 256.159 194.803 255.759 195.181 255.639C195.56 255.52 195.962 255.73 196.082 256.107C196.139 256.283 197.437 260.533 196.096 266.175C196.019 266.505 195.722 266.729 195.397 266.729L195.392 266.733Z" fill="#2764A5"/>
<path d="M202.039 266.733C201.986 266.733 201.928 266.729 201.871 266.714C201.483 266.624 201.244 266.237 201.339 265.851C202.584 260.609 201.363 256.579 201.354 256.536C201.239 256.159 201.45 255.759 201.828 255.639C202.206 255.52 202.608 255.73 202.728 256.107C202.786 256.283 204.083 260.533 202.742 266.175C202.666 266.505 202.369 266.729 202.043 266.729L202.039 266.733Z" fill="#2764A5"/>
<path d="M208.681 266.733C208.628 266.733 208.571 266.729 208.514 266.714C208.126 266.624 207.886 266.237 207.982 265.851C209.227 260.609 208.006 256.579 207.996 256.536C207.881 256.159 208.092 255.759 208.47 255.639C208.849 255.52 209.251 255.73 209.371 256.107C209.428 256.283 210.726 260.533 209.385 266.175C209.308 266.505 209.012 266.729 208.686 266.729L208.681 266.733Z" fill="#2764A5"/>
<path d="M215.322 266.733C215.269 266.733 215.212 266.729 215.154 266.714C214.766 266.624 214.527 266.237 214.623 265.851C215.868 260.609 214.647 256.579 214.637 256.536C214.522 256.159 214.733 255.759 215.111 255.639C215.489 255.52 215.892 255.73 216.011 256.107C216.069 256.283 217.366 260.533 216.026 266.175C215.949 266.505 215.652 266.729 215.327 266.729L215.322 266.733Z" fill="#2764A5"/>
<path d="M89.2901 124.76C89.2901 124.76 93.0682 121.464 96.037 116.604L84.4251 111.257C83.8313 110.985 83.1849 110.842 82.5241 110.842H53.6164C52.8407 110.842 52.0793 111.038 51.4137 111.41C42.1721 116.566 34.8075 124.183 30.2441 133.245C43.7379 141.592 65.4869 135.682 65.4869 135.682L89.2949 124.76H89.2901Z" fill="#2764A5"/>
<path d="M102.746 100.135C85.4745 79.9829 59.8469 83.8701 45.7833 88.0865C36.2161 90.9578 29.8666 100.287 31.2026 110.151C33.9512 130.446 65.4829 135.678 65.4829 135.678H91.6947C91.6947 135.678 124.854 125.929 102.746 100.13V100.135Z" fill="#5E9AD9"/>
<path d="M91.6948 136.398C91.3835 136.398 91.101 136.198 91.0053 135.883C90.8951 135.506 91.1106 135.106 91.4889 134.996C91.6325 134.953 106.046 130.598 109.067 120.444C110.801 114.615 108.493 107.938 102.201 100.597C85.1873 80.7413 59.6794 84.6667 45.9894 88.7686C36.6998 91.5541 30.6473 100.707 31.9114 110.056C34.5594 129.601 65.2867 134.92 65.5979 134.972C65.9906 135.039 66.2539 135.406 66.1869 135.797C66.1199 136.188 65.7512 136.451 65.3585 136.384C65.2771 136.37 57.2852 135.015 49.0635 131.171C38.0693 126.029 31.6433 118.793 30.4845 110.246C29.1246 100.206 35.6081 90.3855 45.568 87.3997C59.5933 83.1977 85.738 79.196 103.283 99.6672C109.91 107.404 112.319 114.529 110.432 120.854C107.185 131.753 92.5088 136.179 91.8863 136.365C91.8193 136.384 91.7523 136.393 91.6804 136.393L91.6948 136.398Z" fill="#2764A5"/>
<path d="M55.541 86.7124V108.414C55.541 111.476 57.0206 114.319 59.4388 115.912L80.8191 129.973L88.8732 113.461V92.8986L55.541 86.7124Z" fill="white"/>
<path d="M81.1068 131.023L59.918 117.091C56.772 115.021 54.8184 111.276 54.8184 107.313V86.7175H56.2549V107.313C56.2549 110.799 57.9596 114.09 60.7081 115.898L80.5274 128.934L86.7379 116.203C87.6621 114.305 88.1505 112.168 88.1505 110.022V106.254H89.5871V110.022C89.5871 112.383 89.046 114.739 88.026 116.828L81.102 131.023H81.1068Z" fill="#2764A5"/>
<path d="M60.5119 81.228C61.1392 84.4236 59.0418 87.5191 55.8336 88.144C52.6254 88.7688 49.5177 86.6845 48.8904 83.484C48.2631 80.2836 50.3556 77.1929 53.5687 76.5681C56.7769 75.9432 59.8846 78.0276 60.5119 81.228Z" fill="white"/>
<path d="M54.6893 88.9734C53.382 88.9734 52.1035 88.5871 50.9974 87.843C49.5274 86.8557 48.5314 85.358 48.1914 83.6267C47.8514 81.8953 48.2105 80.1305 49.2017 78.6662C50.1929 77.202 51.6965 76.2099 53.4347 75.8712C57.026 75.1749 60.5216 77.5167 61.2207 81.094C61.9198 84.6712 59.5687 88.153 55.9773 88.8494C55.5512 88.9305 55.1202 88.9734 54.6941 88.9734H54.6893ZM54.7036 77.1781C54.3732 77.1781 54.0428 77.2115 53.7076 77.2735C52.3429 77.5406 51.165 78.318 50.3893 79.4628C49.6135 80.6122 49.331 81.9907 49.5992 83.35C49.8673 84.7094 50.6478 85.8827 51.7971 86.6554C52.9511 87.4281 54.3349 87.7095 55.6996 87.4424C58.5152 86.8939 60.3587 84.1704 59.8081 81.3658C59.3245 78.8952 57.1409 77.1781 54.7036 77.1781Z" fill="#2764A5"/>
<path d="M93.6813 65.5452C93.6813 65.5452 108.779 109.03 82.1891 109.917C55.5991 110.809 52.5488 72.7378 52.5488 72.7378C52.5488 72.7378 63.5478 36.9607 93.6813 65.5404V65.5452Z" fill="white"/>
<path d="M81.2697 110.647C66.167 110.647 58.7162 98.2602 55.1153 87.7479C54.9861 87.3758 55.1872 86.9657 55.5655 86.8416C55.9437 86.7129 56.3508 86.9132 56.4753 87.29C59.9947 97.5638 67.2971 109.688 82.1651 109.206C87.3988 109.03 91.3206 107.108 93.8153 103.492C101.889 91.7925 93.0923 66.0412 93.0061 65.7789C92.8768 65.4069 93.0731 64.9967 93.4514 64.8679C93.8249 64.7391 94.2367 64.9347 94.366 65.3115C94.7443 66.3942 103.488 92.0072 95.0029 104.299C92.2351 108.31 87.9351 110.442 82.2178 110.633C81.9017 110.642 81.5857 110.647 81.2745 110.647H81.2697Z" fill="#2764A5"/>
<path d="M59.3534 75.7661C60.1723 78.6709 60.8235 83.1495 59.4396 85.5725C58.8411 86.6218 57.4333 87.3087 56.3751 86.7172C54.6656 85.7585 54.249 83.2163 53.4781 81.5994C52.5587 79.6725 51.3281 78.1557 49.7048 76.763C46.5827 74.0777 42.4456 72.1269 41.6507 67.6721C41.1958 65.1108 42.6419 60.4938 45.6011 59.9405C46.1231 59.8403 46.7216 59.8499 47.0903 59.4683C47.392 59.1583 47.4351 58.6908 47.5069 58.2663C48.3928 52.8003 55.9058 47.1626 60.2537 44.3295C66.7946 40.0654 74.9733 37.4421 82.946 38.7681C89.9562 39.9366 97.0095 45.1212 99.3463 51.9513C101.204 57.3744 99.7725 64.0758 95.1133 67.4431C88.8309 71.9838 78.1145 70.4146 71.6836 66.8946C70.6206 66.3127 66.086 63.3746 65.7364 62.3825C66.6271 64.9009 66.833 67.5815 65.5401 70.0092C64.3717 72.2032 61.5322 74.3066 59.0326 74.7264C59.138 75.0412 59.2481 75.3941 59.3534 75.7709V75.7661Z" fill="#2764A5"/>
<path d="M87.5002 126.149C83.837 134.638 82.3239 144.001 83.2576 153.207C83.5258 155.84 83.9711 158.449 84.6127 161.01C84.9862 162.498 87.2943 161.868 86.9208 160.375C84.7851 151.852 84.8809 142.833 87.1506 134.348C87.7875 131.963 88.5871 129.616 89.564 127.35C89.8177 126.759 89.7411 126.072 89.133 125.719C88.6302 125.424 87.7539 125.552 87.4954 126.149H87.5002Z" fill="#2764A5"/>
<path d="M63.9511 127.951C70.8129 134.943 72.9151 144.979 73.0922 154.441C73.1497 157.537 73.03 160.628 72.848 163.714C72.757 165.245 75.1512 165.24 75.2422 163.714C75.8599 153.244 75.654 142.231 70.473 132.797C69.1657 130.417 67.5425 128.204 65.6415 126.262C64.5641 125.161 62.869 126.849 63.9463 127.951H63.9511Z" fill="#2764A5"/>
<path d="M137.773 187.901L121.478 183.356C120.894 183.155 120.223 183.365 119.926 183.904C119.673 184.367 119.725 184.944 120.942 185.421L137.174 193.343L144.673 197.812C145.961 198.58 147.46 198.924 148.954 198.79C150.994 198.609 152.622 197.016 152.828 194.989C153.426 189.151 154.207 177.513 151.741 171.899C148.14 163.705 147.158 171.718 147.158 171.718L145.875 177.809L125.414 170.778C124.83 170.578 124.159 170.788 123.862 171.327C123.609 171.789 123.661 172.366 124.878 172.843L141.11 180.766L121.339 173.864C120.755 173.664 120.084 173.874 119.788 174.413C119.534 174.875 119.586 175.452 120.803 175.929L139.008 184.376L121.037 178.5C120.453 178.3 119.783 178.51 119.486 179.049C119.232 179.511 119.285 180.089 120.501 180.565L137.763 187.901H137.773Z" fill="white"/>
<path d="M148.318 199.529C146.906 199.529 145.536 199.152 144.311 198.423L136.836 193.968L120.656 186.074C119.851 185.754 119.368 185.339 119.176 184.815C119.076 184.533 119.013 184.085 119.301 183.56C119.751 182.74 120.79 182.358 121.714 182.678L127.364 184.257L120.23 181.223C119.43 180.908 118.937 180.493 118.74 179.959C118.64 179.678 118.578 179.23 118.865 178.705C119.315 177.884 120.354 177.503 121.278 177.822L127.752 179.94L120.507 176.578C119.727 176.272 119.234 175.857 119.042 175.323C118.942 175.042 118.879 174.593 119.167 174.069C119.617 173.248 120.656 172.867 121.58 173.186L129.907 176.096L124.592 173.501C123.787 173.182 123.304 172.767 123.112 172.242C123.012 171.961 122.949 171.512 123.237 170.988C123.687 170.167 124.726 169.786 125.65 170.105L145.34 176.873L146.451 171.603C146.571 170.663 147.069 167.749 148.711 167.511C149.937 167.334 151.077 168.598 152.398 171.612C154.898 177.298 154.189 188.745 153.543 195.06C153.303 197.426 151.397 199.291 149.018 199.5C148.783 199.52 148.548 199.534 148.314 199.534L148.318 199.529ZM121.034 183.999C120.823 183.999 120.646 184.09 120.56 184.242C120.526 184.304 120.526 184.328 120.526 184.328C120.541 184.371 120.699 184.552 121.211 184.748L121.264 184.772L137.549 192.723L145.048 197.192C146.212 197.888 147.543 198.194 148.898 198.07C150.593 197.922 151.948 196.591 152.12 194.907C152.628 189.937 153.547 177.765 151.091 172.18C149.688 168.994 148.946 168.922 148.927 168.922C148.615 168.965 148.06 170.334 147.878 171.803L147.868 171.865L146.417 178.753L125.19 171.455C124.922 171.364 124.621 171.455 124.506 171.67C124.472 171.727 124.472 171.756 124.472 171.76C124.487 171.803 124.645 171.984 125.157 172.18L125.21 172.204L141.442 180.126L140.887 181.443L121.115 174.541C120.852 174.45 120.55 174.541 120.436 174.756C120.402 174.818 120.402 174.841 120.402 174.841C120.416 174.884 120.574 175.066 121.087 175.261L139.331 183.723L138.804 185.053L120.833 179.177C120.555 179.082 120.254 179.177 120.139 179.387C120.105 179.444 120.105 179.473 120.105 179.473C120.119 179.516 120.277 179.697 120.79 179.893L138.071 187.238L137.597 188.583L121.302 184.037C121.216 184.009 121.13 183.994 121.048 183.994L121.034 183.999Z" fill="#2764A5"/>
<path d="M44.9258 177.446C44.854 177.446 44.7774 177.436 44.7055 177.413C44.3273 177.293 44.1213 176.888 44.2411 176.516C45.8212 171.584 45.0982 168.331 45.0886 168.298C44.9976 167.911 45.237 167.53 45.6249 167.439C46.0128 167.349 46.3958 167.587 46.4868 167.969C46.5203 168.117 47.32 171.608 45.6105 176.95C45.5148 177.255 45.2323 177.446 44.9258 177.446Z" fill="#2764A5"/>
<path d="M30.0633 271.231H21.2143C15.0708 271.231 10.0813 266.261 10.0813 260.141L10.0813 240.643C10.0813 239.184 11.2736 237.996 12.7388 237.996H38.5436C40.0089 237.996 41.2012 239.184 41.2012 240.643L41.2012 260.141C41.2012 266.261 36.2116 271.231 30.0681 271.231H30.0633Z" fill="#B3CDFA"/>
<path d="M30.0597 271.946H21.2107C14.6745 271.946 9.35938 266.652 9.35938 260.141V240.643C9.35938 238.788 10.8725 237.28 12.7352 237.28H38.54C40.4027 237.28 41.9158 238.788 41.9158 240.643V260.141C41.9158 266.652 36.6007 271.946 30.0645 271.946H30.0597ZM12.7352 238.711C11.6674 238.711 10.7959 239.579 10.7959 240.643V260.141C10.7959 265.86 15.4694 270.515 21.2107 270.515H30.0597C35.801 270.515 40.4745 265.86 40.4745 260.141V240.643C40.4745 239.579 39.603 238.711 38.5352 238.711H12.7304H12.7352Z" fill="#B3CDFA"/>
<path d="M10.0769 255.329H6.80159C3.92854 255.329 1.5918 253.001 1.5918 250.139V249.352C1.5918 246.49 3.92854 244.163 6.80159 244.163H10.0769C10.4743 244.163 10.7951 244.482 10.7951 244.878C10.7951 245.274 10.4743 245.594 10.0769 245.594H6.80159C4.71863 245.594 3.02832 247.282 3.02832 249.352V250.139C3.02832 252.214 4.72342 253.898 6.80159 253.898H10.0769C10.4743 253.898 10.7951 254.217 10.7951 254.613C10.7951 255.009 10.4743 255.329 10.0769 255.329Z" fill="#B3CDFA"/>
</g>
<path d="M429.722 148.325H258.921C249.45 148.325 241.771 156.347 241.771 166.241V241.842C241.771 251.736 249.45 259.759 258.921 259.759H429.722C439.193 259.759 446.872 251.736 446.872 241.842V166.241C446.872 156.347 439.193 148.325 429.722 148.325Z" fill="#2764A5"/>
<path d="M265.217 155.2L263.284 150.678C261.784 147.165 260.897 143.42 260.671 139.609L259.964 127.789C259.964 127.789 259.677 122.816 261.477 122.086C263.277 121.362 274.163 117.849 274.163 117.849L274.41 101.601C274.43 100.426 275.336 99.4628 276.503 99.3566C277.736 99.2503 278.829 100.133 278.976 101.355L282.269 128.234C282.382 129.164 283.616 129.416 284.089 128.606L286.829 123.905C287.595 122.59 289.229 122.059 290.629 122.67L290.662 122.683C291.175 122.909 291.449 123.453 291.329 123.985L288.562 136.116C288.335 137.119 287.875 138.055 287.222 138.852L286.516 139.715C284.842 141.76 283.896 144.303 283.822 146.939L283.696 151.747L265.204 155.193L265.217 155.2Z" fill="white"/>
<path d="M264.612 156.329L262.365 151.07C260.819 147.437 259.912 143.606 259.679 139.669L258.972 127.849C258.892 126.515 258.819 122.086 261.112 121.163C262.679 120.532 270.751 117.909 273.185 117.125L273.418 101.588C273.444 99.9011 274.738 98.5133 276.431 98.3673C278.211 98.2212 279.771 99.4762 279.984 101.236L283.277 128.115L285.977 123.4C286.997 121.647 289.177 120.937 291.037 121.754C292.017 122.185 292.543 123.208 292.31 124.204L289.543 136.335C289.283 137.477 288.75 138.566 288.004 139.476L287.297 140.339C285.77 142.205 284.897 144.556 284.83 146.959L284.684 152.57L264.605 156.315L264.612 156.329ZM276.711 100.353C276.671 100.353 276.638 100.353 276.598 100.353C275.931 100.412 275.424 100.957 275.418 101.621L275.164 118.58L274.484 118.799C274.378 118.832 263.612 122.305 261.865 123.009C261.279 123.248 260.845 125.538 260.972 127.73L261.679 139.549C261.899 143.254 262.752 146.873 264.212 150.286L265.825 154.071L282.731 150.917L282.837 146.913C282.911 144.071 283.95 141.289 285.75 139.084L286.457 138.221C287.01 137.55 287.404 136.747 287.597 135.897L290.363 123.766C290.377 123.693 290.343 123.626 290.27 123.6C289.303 123.175 288.217 123.533 287.704 124.41L284.964 129.111C284.53 129.855 283.704 130.226 282.857 130.054C282.011 129.881 281.397 129.217 281.291 128.36L277.998 101.475C277.918 100.817 277.364 100.339 276.718 100.339L276.711 100.353Z" fill="#2764A5"/>
<path d="M265.311 136.316C264.904 136.316 264.511 136.223 264.131 136.044C262.964 135.486 262.051 134.138 261.344 131.914C261.178 131.389 261.464 130.831 261.991 130.665C262.518 130.499 263.077 130.785 263.244 131.309C263.937 133.474 264.637 134.078 264.991 134.251C265.197 134.351 265.391 134.351 265.624 134.264C265.917 134.151 266.164 133.906 266.297 133.58C268.777 127.837 263.591 121.814 263.537 121.754C263.177 121.343 263.217 120.712 263.631 120.347C264.044 119.981 264.677 120.028 265.044 120.44C265.291 120.725 271.104 127.478 268.137 134.357C267.784 135.167 267.131 135.805 266.344 136.11C265.997 136.243 265.651 136.309 265.304 136.309L265.311 136.316Z" fill="#2764A5"/>
<path d="M269.531 136.501C268.631 136.501 267.511 136.076 266.411 134.549C266.091 134.104 266.191 133.48 266.645 133.161C267.091 132.842 267.718 132.942 268.038 133.394C269.118 134.901 269.831 134.502 270.098 134.35C270.444 134.157 270.718 133.805 270.858 133.374C273.591 125.286 268.218 120.386 268.165 120.333C267.751 119.967 267.718 119.337 268.085 118.925C268.451 118.513 269.084 118.48 269.498 118.845C269.758 119.078 275.904 124.688 272.758 134.004C272.458 134.901 271.858 135.638 271.084 136.076C270.758 136.262 270.204 136.495 269.531 136.501Z" fill="#2764A5"/>
<path d="M274.091 136.289C273.711 136.289 273.345 136.202 272.998 136.023C272.125 135.565 271.505 134.595 271.105 133.055C270.965 132.524 271.291 131.979 271.825 131.84C272.358 131.7 272.905 132.026 273.045 132.557C273.385 133.885 273.805 134.19 273.925 134.257C273.971 134.283 274.091 134.343 274.358 134.243C274.711 134.111 275.018 133.792 275.164 133.387C277.964 125.777 273.378 118.467 273.331 118.394C273.038 117.929 273.171 117.311 273.638 117.019C274.105 116.72 274.718 116.86 275.018 117.324C275.231 117.656 280.191 125.525 277.044 134.077C276.691 135.034 275.971 135.777 275.064 136.116C274.738 136.235 274.411 136.302 274.098 136.302L274.091 136.289Z" fill="#2764A5"/>
<path d="M361.072 137.584C361.072 140.034 370.365 142.026 381.824 142.026C393.283 142.026 402.576 140.041 402.576 137.584C402.576 135.127 393.283 133.142 381.824 133.142C370.365 133.142 361.072 135.127 361.072 137.584Z" fill="#2764A5"/>
<path d="M396.669 107.365C396.262 110.645 398.602 113.633 401.902 114.038C405.195 114.443 408.195 112.113 408.602 108.826C409.008 105.546 406.668 102.558 403.369 102.153C400.075 101.748 397.076 104.078 396.669 107.365Z" fill="white"/>
<path d="M402.655 115.081C402.368 115.081 402.075 115.061 401.781 115.027C399.922 114.802 398.262 113.865 397.115 112.391C395.962 110.924 395.455 109.091 395.682 107.239C396.155 103.414 399.661 100.691 403.501 101.163C407.341 101.634 410.074 105.127 409.601 108.952C409.374 110.804 408.434 112.458 406.954 113.6C405.708 114.569 404.208 115.081 402.655 115.081ZM397.668 107.484C397.502 108.806 397.868 110.114 398.688 111.17C399.515 112.219 400.695 112.889 402.028 113.055C403.355 113.221 404.668 112.856 405.728 112.039C406.781 111.216 407.454 110.041 407.621 108.713C407.788 107.391 407.421 106.083 406.601 105.027C405.774 103.978 404.595 103.308 403.261 103.142C400.521 102.803 398.008 104.755 397.675 107.484H397.668Z" fill="#2764A5"/>
<path d="M400.002 114.702V148.58C400.002 150.433 399.128 152.152 397.689 153.115L373.73 169.211L366.904 154.921C365.891 152.797 365.357 150.433 365.357 148.029V134.583L399.995 114.702H400.002Z" fill="white"/>
<path d="M373.331 170.685L366.005 155.346C364.932 153.095 364.365 150.565 364.365 148.022V134.576H366.365V148.022C366.365 150.267 366.865 152.504 367.812 154.49L374.138 167.737L397.136 152.285C398.29 151.508 399.01 150.087 399.01 148.573V114.696H401.009V148.573C401.009 150.778 399.983 152.783 398.256 153.939L373.338 170.685H373.331Z" fill="#2764A5"/>
<path d="M367.945 137.344C382.998 139.197 396.99 129.323 400.23 114.562L406.889 84.257C406.889 84.257 356.846 64.6223 352.326 77.5506C348.72 87.8626 349.34 105.997 350.466 119.224C351.266 128.626 358.553 136.182 367.945 137.338V137.344Z" fill="white"/>
<path d="M371.657 138.566C370.39 138.566 369.117 138.487 367.824 138.334C358.024 137.132 350.305 129.131 349.465 119.31C348.825 111.82 348.605 100.984 348.918 92.9623C348.938 92.4112 349.405 91.9862 349.958 92.0062C350.512 92.0261 350.938 92.4909 350.918 93.042C350.605 100.997 350.825 111.727 351.458 119.144C352.212 128.029 359.198 135.266 368.064 136.355C383.009 138.188 396.502 128.354 399.442 113.474C399.548 112.936 400.075 112.584 400.615 112.69C401.155 112.796 401.508 113.321 401.402 113.859C398.508 128.493 386.069 138.566 371.644 138.566H371.657Z" fill="#2764A5"/>
<path d="M385.171 91.7806C386.424 91.1498 387.637 90.3928 388.984 89.8483C389.277 89.7288 389.677 89.6026 389.97 89.7952C390.124 89.8948 390.19 90.0542 390.25 90.2202C390.584 91.1963 390.61 92.3782 390.824 93.3941C391.97 98.7859 394.163 103.919 397.683 108.202C398.223 108.859 398.956 109.556 399.803 109.41C400.336 109.317 400.73 108.899 401.09 108.514C406.762 102.345 413.155 91.3423 410.229 82.677C409.422 80.28 407.529 78.1352 405.056 77.5443C402.583 76.9533 399.65 78.288 398.916 80.7116C400.69 74.8484 391.797 68.3345 386.824 67.7037C384.157 67.365 381.271 67.4779 379.031 68.9586C379.838 68.3345 373.505 61.9002 372.651 61.2163C368.592 57.976 364.072 55.8246 358.786 55.632C351.953 55.3797 345.007 58.62 341.087 64.2044C338.387 68.049 337.28 72.8365 337.6 77.4845C337.974 82.9294 339.747 87.5243 343.94 91.0834C351.1 97.1657 362.772 95.8244 370.412 91.4087C370.658 91.2627 373.298 89.5097 373.231 89.43C375.025 91.5349 377.918 92.8231 380.744 92.936C382.417 93.0024 383.824 92.4778 385.177 91.7939L385.171 91.7806Z" fill="#2764A5"/>
<path d="M293.936 157.292L306.941 210.419L331.873 167.265C337.979 156.575 349.385 149.988 361.731 150.028V138.016H361.824C362.804 140.267 371.364 142.026 381.79 142.026C392.216 142.026 400.522 140.32 401.702 138.115H401.862V150.147C409.848 150.167 417.601 152.816 423.92 157.684C444.772 173.746 488.996 212.404 475.143 242.046C470.45 252.092 460.198 258.4 449.078 258.653L283.423 258.938C283.423 258.938 258.331 233.002 258.111 163.295C258.098 159.078 261.171 155.473 265.344 154.782L284.363 151.648C288.509 150.964 292.542 153.348 293.936 157.299V157.292Z" fill="#5E9AD9"/>
<path d="M282.99 259.933L282.697 259.628C282.437 259.356 276.218 252.835 269.918 237.636C264.138 223.685 257.219 199.469 257.106 163.3C257.092 158.573 260.485 154.575 265.178 153.798L284.197 150.664C288.83 149.901 293.323 152.55 294.876 156.966L294.903 157.059L307.315 207.762L331.001 166.767C337.107 156.083 348.426 149.356 360.725 149.038V137.006H362.478L362.738 137.61C363.345 139.004 370.471 141.023 381.784 141.023C393.096 141.023 400.049 139.058 400.816 137.637L401.096 137.112H402.856V149.157C410.675 149.389 418.335 152.119 424.521 156.886C435.733 165.525 451.572 179.004 463.325 194.15C477.937 212.981 482.217 229.236 476.037 242.457C471.284 252.636 460.705 259.376 449.086 259.641L282.984 259.927L282.99 259.933ZM285.784 152.524C285.37 152.524 284.944 152.557 284.524 152.63L265.505 155.764C261.785 156.375 259.092 159.542 259.105 163.294C259.312 227.762 281.137 254.827 283.857 257.941L449.066 257.656C459.905 257.41 469.791 251.122 474.224 241.627C487.843 212.477 443.146 173.765 423.294 158.473C417.188 153.765 409.569 151.162 401.849 151.142H400.849V140.12C397.243 142.112 389.237 143.022 381.777 143.022C374.318 143.022 366.378 142.099 362.718 140.107V151.03H361.718C361.718 151.03 361.652 151.03 361.618 151.03C349.693 151.03 338.633 157.437 332.734 167.763L306.556 213.074L292.97 157.583C291.87 154.516 288.97 152.53 285.784 152.53V152.524Z" fill="#2764A5"/>
<path d="M381.637 156.528C380.864 156.528 380.07 156.508 379.251 156.468C378.697 156.442 378.277 155.97 378.304 155.426C378.331 154.875 378.804 154.45 379.351 154.483C391.916 155.12 398.949 150.273 399.016 150.227C399.469 149.908 400.089 150.014 400.409 150.466C400.729 150.917 400.622 151.535 400.169 151.854C399.882 152.059 393.383 156.535 381.63 156.535L381.637 156.528Z" fill="#2764A5"/>
<path d="M391.836 160.087C391.329 160.087 390.889 159.702 390.843 159.184C390.789 158.639 391.196 158.148 391.743 158.095C398.249 157.477 402.848 153.453 402.895 153.407C403.308 153.042 403.942 153.075 404.308 153.487C404.675 153.898 404.642 154.522 404.228 154.894C404.022 155.08 399.109 159.396 391.929 160.08C391.896 160.08 391.863 160.08 391.836 160.08V160.087Z" fill="#2764A5"/>
<path d="M416.335 217.61C415.802 217.61 415.355 217.192 415.335 216.654C415.095 210.452 418.862 207.982 419.022 207.883C419.488 207.584 420.108 207.723 420.402 208.188C420.695 208.653 420.562 209.264 420.102 209.563C419.962 209.655 417.142 211.588 417.328 216.581C417.348 217.132 416.922 217.59 416.369 217.617C416.355 217.617 416.342 217.617 416.329 217.617L416.335 217.61Z" fill="#2764A5"/>
<path d="M423.774 259.934C402.916 259.934 377.671 259.277 371.084 256.269C360.119 251.262 362.525 233.573 363.525 228.268C363.992 225.784 366.091 223.952 368.625 223.812L425.128 218.308C425.681 218.248 426.167 218.653 426.221 219.204C426.274 219.749 425.874 220.24 425.321 220.293L368.778 225.804C367.125 225.897 365.792 227.059 365.492 228.64C364.825 232.159 362.018 249.941 371.918 254.456C379.491 257.916 416.728 258.374 449.053 257.65C449.613 257.637 450.066 258.075 450.073 258.626C450.086 259.177 449.646 259.629 449.093 259.642C443.78 259.762 434.34 259.928 423.768 259.928L423.774 259.934Z" fill="#2764A5"/>
<path d="M368.33 231.833L348.758 232.882L327.047 244.309C325.953 244.887 325.52 246.215 326.06 247.324C326.587 248.4 327.867 248.885 328.98 248.433L343.119 242.696C343.359 242.596 343.532 242.928 343.319 243.074L328.673 252.928C327.647 253.619 327.387 255.013 328.1 256.023C328.766 256.972 330.06 257.238 331.053 256.647L347.579 246.74C347.745 246.64 347.912 246.866 347.772 246.992L341.346 252.842C339.899 254.157 340.539 256.554 342.452 256.972C343.059 257.105 343.692 257.005 344.219 256.687L350.952 252.663L368.724 252.796C374.557 252.829 379.31 248.128 379.31 242.311C379.31 236.341 374.317 231.58 368.33 231.839V231.833Z" fill="white"/>
<path d="M342.973 258.021C342.727 258.021 342.473 257.995 342.227 257.941C340.973 257.663 339.993 256.726 339.667 255.498C339.334 254.263 339.72 252.968 340.667 252.105L340.867 251.919L331.567 257.497C330.127 258.36 328.248 257.961 327.281 256.594C326.781 255.883 326.594 255.026 326.748 254.177C326.908 253.327 327.388 252.59 328.108 252.105L336.5 246.461L329.347 249.362C327.748 250.013 325.908 249.309 325.154 247.769C324.375 246.169 324.994 244.27 326.574 243.44L348.486 231.912L368.292 230.85C371.458 230.711 374.471 231.846 376.758 234.031C379.051 236.215 380.311 239.163 380.311 242.317C380.311 245.471 379.104 248.287 376.911 250.458C374.738 252.616 371.851 253.798 368.785 253.798C368.765 253.798 368.738 253.798 368.718 253.798L351.226 253.672L344.733 257.55C344.193 257.868 343.593 258.034 342.98 258.034L342.973 258.021ZM347.653 245.71C348.006 245.71 348.353 245.87 348.58 246.175C348.94 246.653 348.873 247.317 348.433 247.716L342.007 253.566C341.607 253.931 341.453 254.455 341.593 254.973C341.733 255.491 342.133 255.87 342.66 255.989C343.02 256.069 343.387 256.009 343.7 255.823L350.673 251.66L368.725 251.793C368.725 251.793 368.765 251.793 368.778 251.793C371.311 251.793 373.691 250.817 375.491 249.03C377.304 247.238 378.298 244.847 378.298 242.304C378.298 239.761 377.258 237.258 375.364 235.452C373.471 233.645 370.991 232.709 368.372 232.822L349.02 233.858L327.501 245.179C326.881 245.505 326.641 246.248 326.948 246.879C327.241 247.483 327.968 247.756 328.594 247.503L342.733 241.766C343.313 241.534 343.967 241.766 344.266 242.317C344.56 242.869 344.393 243.539 343.873 243.891L329.228 253.745C328.954 253.931 328.774 254.203 328.714 254.528C328.654 254.847 328.728 255.173 328.914 255.445C329.281 255.963 329.987 256.109 330.534 255.783L347.06 245.876C347.246 245.764 347.453 245.71 347.66 245.71H347.653Z" fill="#2764A5"/>
<path d="M384.943 240.917C384.41 240.917 383.97 240.499 383.944 239.961C383.777 236.083 381.484 232.643 377.957 230.99C377.457 230.758 377.244 230.16 377.477 229.662C377.711 229.164 378.311 228.952 378.811 229.184C383.017 231.156 385.75 235.246 385.943 239.874C385.963 240.426 385.537 240.89 384.983 240.91C384.97 240.91 384.957 240.91 384.943 240.91V240.917Z" fill="#2764A5"/>
<path d="M273.57 144.53C273.03 144.53 272.59 144.105 272.57 143.567C272.377 137.723 277.303 134.968 279.936 134.324C280.476 134.191 281.016 134.523 281.143 135.054C281.276 135.585 280.949 136.13 280.409 136.256C280.149 136.322 274.377 137.83 274.563 143.494C274.583 144.045 274.15 144.503 273.597 144.523C273.583 144.523 273.577 144.523 273.563 144.523L273.57 144.53Z" fill="#2764A5"/>
<path d="M349.538 230.903C348.985 230.903 348.538 230.452 348.545 229.901L348.652 212.59C348.652 212.039 349.085 211.607 349.658 211.601C350.212 211.601 350.658 212.052 350.652 212.603L350.545 229.914C350.545 230.465 350.092 230.903 349.545 230.903H349.538Z" fill="#2764A5"/>
<path d="M259.646 231.644H212.05C205.528 231.644 200.24 236.903 200.24 243.39V267.19C200.24 273.677 205.528 278.935 212.05 278.935H259.646C266.168 278.935 271.456 273.677 271.456 267.19V243.39C271.456 236.903 266.168 231.644 259.646 231.644Z" fill="#5E9AD9"/>
<path d="M226.615 248.957V261.613C226.615 263.825 229.258 265.199 231.375 264.097L243.49 257.773C245.608 256.671 245.608 253.907 243.49 252.805L231.375 246.481C229.258 245.379 226.615 246.761 226.615 248.965V248.957Z" fill="white"/>
</g>
<defs>
<clipPath id="clip0_898_7451">
<rect width="404.703" height="243.915" fill="white" transform="translate(-20 28.032)"/>
</clipPath>
</defs>
</svg>
