<svg width="178" height="249" viewBox="0 0 178 249" fill="none" xmlns="http://www.w3.org/2000/svg">
<path d="M114.629 19.4714C105.588 10.8033 91.7934 4.55851 79.0242 5.49057C65.5094 6.42263 64.0181 20.2171 65.2298 30.4697C68.8648 61.1345 56.1888 89.5622 66.5347 120.041C68.958 127.311 72.4066 134.301 77.7194 139.8C83.0321 145.299 90.3953 149.121 98.0382 148.748C106.427 148.375 113.976 143.249 119.755 137.284C141.659 114.635 142.031 81.4533 133.643 52.8391C130.008 40.3496 124.043 28.4192 114.629 19.4714Z" fill="#2764A5"/>
<path d="M23.0078 247.359C32.5148 220.33 55.5367 152.849 55.5367 152.849L67.5602 177.175C74.271 187.987 79.0245 208.679 74.0846 220.423C71.102 227.693 66.7214 237.852 62.6203 247.453H23.0078V247.359Z" fill="white"/>
<path d="M23.0066 248.292C22.9134 248.292 22.8202 248.292 22.727 248.199C22.261 248.012 21.9814 247.453 22.1678 246.987C31.5816 220.237 54.5102 153.129 54.6966 152.476L55.4423 150.333L68.4911 176.617C75.5747 187.894 79.9554 208.773 75.0155 220.61C71.8465 228.159 67.4658 238.505 63.5512 247.639C63.3647 248.105 62.8055 248.292 62.3395 248.105C61.8735 247.919 61.687 247.36 61.8735 246.894C65.7881 237.76 70.1688 227.414 73.2446 219.864C77.9981 208.586 73.6174 188.454 66.8134 177.455L55.7219 155.086C51.714 166.737 32.3272 223.499 23.8455 247.546C23.7523 248.012 23.3794 248.292 23.0066 248.292Z" fill="#2764A5"/>
<path d="M79.211 100.001H144.921C164.215 100.001 178.941 117.058 176.331 136.072L168.875 247.36H61.3155L47.7074 135.42C45.4705 116.592 60.197 100.001 79.211 100.001Z" fill="#B3CDFA"/>
<path d="M169.713 248.292H60.4762L60.383 247.453L46.775 135.513C45.6565 126.285 48.5459 116.965 54.7907 109.974C60.9423 102.984 69.89 98.9761 79.2106 98.9761H144.921C154.335 98.9761 163.375 103.077 169.527 110.161C175.772 117.244 178.568 126.751 177.263 136.072L169.713 248.292ZM62.1539 246.428H167.943L175.399 135.979C176.611 127.124 174.001 118.176 168.129 111.466C162.257 104.755 153.868 100.933 144.921 100.933H79.2106C70.4493 100.933 62.0607 104.662 56.1888 111.279C50.3168 117.897 47.6138 126.658 48.6391 135.326L62.1539 246.428Z" fill="#2764A5"/>
<path d="M20.8635 187.242H48.0797C51.9943 187.242 54.9769 183.607 54.0448 179.692L41.462 123.303C40.6232 119.481 37.2678 116.872 33.3531 116.872H6.13702C2.22237 116.872 -0.76021 120.507 0.171849 124.421L12.7546 180.811C13.6867 184.632 17.0421 187.242 20.8635 187.242Z" fill="#2764A5"/>
<path d="M125.626 100.001C131.032 130.386 85.2681 149.866 85.2681 149.866C85.2681 149.866 68.2114 119.947 82.7515 99.908L86.7594 57.2197H123.855L125.626 100.001Z" fill="white"/>
<path d="M84.8032 151.078L84.4303 150.332C83.6847 149.121 67.3736 119.854 81.8206 99.5351L85.8284 56.1943H124.695L126.466 99.8147C131.872 130.573 87.4129 149.866 85.5488 150.705L84.8032 151.078ZM87.5061 58.0585L83.5915 100.187L83.4051 100.374C70.6359 117.99 83.1254 143.901 85.5488 148.561C91.514 145.858 129.449 127.217 124.602 100.001V99.9079L122.831 57.9652H87.5061V58.0585Z" fill="#2764A5"/>
<path d="M57.0264 211.941L55.5352 200.104L158.9 173.354L168.78 247.359H61.7799L57.0264 211.941Z" fill="#2764A5"/>
<path d="M4.46059 165.431L17.789 154.992L30.3718 153.408L22.2629 148.654L5.67227 147.815C3.62174 147.815 1.66441 144.46 5.67227 143.901L22.9154 141.943L40.3448 146.79L50.8771 164.872L95.4295 189.385L118.545 149.307C130.941 145.951 155.268 160.118 158.623 172.515L136.067 211.568L135.881 211.848C135.601 212.314 135.415 212.687 135.135 213.153L125.535 229.091C116.867 244.097 96.7344 247.732 83.406 236.641L35.7778 191.808C27.7621 191.156 23.2882 184.818 23.2882 184.818C22.9154 184.445 22.5425 183.513 22.2629 182.301L14.8064 186.775C11.3578 188.08 10.0529 184.259 12.7559 182.208L19.4667 176.896L9.4005 182.954C5.95188 184.259 4.647 180.437 7.34997 178.387L17.0434 170.744L8.28203 176.057C4.83342 177.362 3.52854 173.54 6.23151 171.49L13.9676 165.338L6.41792 169.905C3.15571 171.21 1.85082 167.482 4.46059 165.431Z" fill="white"/>
<path d="M101.301 244.097C94.5904 244.097 88.066 241.767 82.8464 237.387L35.4047 192.741C27.6686 191.995 23.1947 186.217 22.6355 185.471C22.2626 185.098 21.983 184.539 21.7034 183.793L15.179 187.708C12.9421 188.547 11.4508 187.615 10.7983 186.496C10.3323 185.657 10.2391 184.446 10.7051 183.327L9.67985 183.886C7.44291 184.725 5.95162 183.793 5.29918 182.675C4.55353 181.277 4.73995 179.133 6.69727 177.735L7.2565 177.269C5.7652 177.362 4.64674 176.616 4.18071 175.777C3.52827 174.566 3.62148 172.608 5.11277 171.117C5.11277 171.117 5.11277 171.117 5.01956 171.117C3.62147 171.117 2.78263 170.372 2.3166 169.626C1.57095 168.228 1.75736 166.084 3.71468 164.686L17.2295 154.061L27.389 152.849L21.8898 149.587L5.48559 148.748C3.90109 148.748 2.4098 147.35 2.3166 145.765C2.3166 145.206 2.4098 143.342 5.48559 142.969L22.9151 141.012L40.9038 146.045L51.5293 164.313L95.1496 188.267L117.985 148.655L118.358 148.561C127.212 146.231 140.727 152.103 149.489 159.094C149.861 159.373 149.955 160.026 149.675 160.399C149.395 160.771 148.743 160.865 148.37 160.585C138.956 152.942 126.56 148.655 119.29 150.332L95.8953 190.784L50.2244 165.711L39.7853 147.723L22.9151 143.062L5.85841 145.02C5.11276 145.113 4.36712 145.392 4.36712 145.858C4.36712 146.418 5.11277 147.07 5.76521 147.07L22.6355 147.909L33.2609 154.247L18.1616 156.111L5.11277 166.457C4.08751 167.296 3.9011 168.414 4.18071 169.067C4.46033 169.626 5.20597 169.812 6.13803 169.44L13.5945 164.966L14.6198 166.457L6.88368 172.608C5.85841 173.447 5.672 174.566 5.95162 175.218C6.23124 175.777 6.97689 175.964 7.90895 175.591L16.5771 170.372L17.6024 171.863L7.90895 179.506C6.88368 180.345 6.69727 181.463 6.97689 182.116C7.25651 182.675 8.00215 182.861 8.9342 182.488L18.9072 176.43L19.9325 177.921L13.2217 183.234C12.1964 184.073 12.01 185.191 12.2896 185.844C12.5692 186.403 13.3149 186.589 14.2469 186.217L22.7287 181.09L23.0083 182.302C23.3811 183.886 23.7539 184.259 23.8472 184.352L23.9403 184.446C23.9403 184.539 28.321 190.411 35.6843 191.063H36.0571L36.3367 191.25L83.9649 236.082C90.1165 241.115 98.1322 243.259 105.961 241.86C113.791 240.462 120.688 235.709 124.603 228.718L134.203 212.78C134.482 212.314 134.762 211.941 134.949 211.569L135.135 211.289L163.003 163.381L164.588 164.313L136.533 212.501C136.253 212.967 135.974 213.339 135.787 213.805L126.187 229.744C121.9 237.107 114.63 242.233 106.241 243.725C104.75 243.911 103.072 244.097 101.301 244.097Z" fill="#2764A5"/>
<path d="M12.2896 167.575C12.01 167.575 11.7304 167.389 11.544 167.203C11.2644 166.737 11.3576 166.177 11.8236 165.898L17.416 162.169L24.686 160.212C25.1521 160.119 25.7113 160.399 25.8045 160.865C25.8977 161.331 25.6181 161.89 25.1521 161.983L18.1616 163.94L12.8489 167.482C12.5693 167.575 12.4761 167.575 12.2896 167.575Z" fill="#2764A5"/>
<path d="M14.9908 173.168C14.7112 173.168 14.4316 172.981 14.2452 172.795C13.9656 172.329 14.0588 171.77 14.5248 171.49L20.1172 167.762L27.3872 165.804C27.8532 165.711 28.4125 165.991 28.5057 166.457C28.5989 166.923 28.3193 167.482 27.8532 167.575L20.8628 169.533L15.55 173.075C15.3636 173.168 15.1772 173.168 14.9908 173.168Z" fill="#2764A5"/>
<path d="M16.9498 179.598C16.6702 179.598 16.3906 179.412 16.2042 179.226C15.9245 178.76 16.0177 178.2 16.4838 177.921L22.0761 174.192L29.3462 172.235C29.8122 172.142 30.3714 172.422 30.4646 172.888C30.5579 173.354 30.2783 173.913 29.8122 174.006L22.8218 175.963L17.509 179.505C17.3226 179.598 17.1362 179.598 16.9498 179.598Z" fill="#2764A5"/>
<path d="M95.4273 200.943C95.2408 200.943 95.1476 200.943 94.9612 200.85C94.4952 200.57 94.3088 200.011 94.5884 199.638C96.9186 195.164 94.5884 189.851 94.5884 189.758C94.402 189.292 94.5884 188.733 95.0544 188.547C95.5205 188.36 96.0797 188.547 96.2661 189.013C96.3593 189.292 98.9691 195.164 96.2661 200.477C96.1729 200.756 95.8001 200.943 95.4273 200.943Z" fill="#2764A5"/>
<path d="M85.1758 150.799C84.9894 150.799 84.803 150.705 84.6166 150.612C84.2437 150.332 84.1505 149.68 84.4302 149.307C84.5234 149.214 88.3448 143.715 89.5565 132.344C89.6497 131.878 90.0225 131.505 90.5817 131.505C91.0478 131.598 91.5138 131.971 91.4206 132.53C90.2089 144.554 86.2011 150.146 86.0146 150.426C85.735 150.612 85.4554 150.799 85.1758 150.799Z" fill="#2764A5"/>
<path d="M64.7632 23.8522C61.501 29.1649 59.9165 35.3165 60.0097 41.5613C60.1962 57.5927 63.3652 92.1721 88.1579 88.8166C109.595 85.9273 111.646 59.7364 110.714 42.5865C109.968 30.097 102.232 18.9123 90.5812 14.252C82.1927 10.9898 72.4061 11.4558 64.7632 23.8522Z" fill="white"/>
<path d="M84.8977 90.0282C79.9578 90.0282 75.6703 88.4437 72.1285 85.368C61.037 75.7677 59.2661 53.8644 59.0797 41.5612C58.9865 35.0368 60.7574 28.6988 64.0196 23.3861C70.6372 12.5742 79.9578 9.21878 90.9561 13.5063C102.793 18.1665 110.902 29.6309 111.648 42.5865C112.58 58.8975 110.809 86.6728 88.3463 89.7486C87.1346 89.935 86.0162 90.0282 84.8977 90.0282ZM82.0083 13.5063C75.4839 13.5063 69.9848 17.1413 65.6041 24.3181C62.5283 29.3512 60.8506 35.3164 60.9438 41.5612C61.037 53.4916 62.8079 74.8357 73.3402 83.9699C77.348 87.4185 82.2879 88.7234 88.0667 87.9777C109.131 85.1816 110.716 58.4315 109.784 42.7729C109.038 30.4697 101.395 19.6578 90.3036 15.2772C87.321 14.0655 84.6181 13.5063 82.0083 13.5063Z" fill="#2764A5"/>
<path d="M105.216 50.7887C106.334 53.8644 109.783 55.4489 112.859 54.3305C115.934 53.212 117.519 49.7634 116.4 46.6876C115.282 43.6118 111.833 42.0273 108.758 43.1458C105.775 44.2642 104.097 47.7129 105.216 50.7887Z" fill="white"/>
<path d="M110.9 55.7279C110.807 55.7279 110.807 55.7279 110.714 55.7279C110.155 55.7279 109.782 55.2619 109.782 54.7958C109.782 54.2366 110.248 53.8638 110.714 53.8638C111.366 53.8638 111.926 53.7706 112.578 53.5842C115.188 52.6521 116.586 49.7627 115.561 47.153C114.629 44.5432 111.739 43.1451 109.129 44.1704C108.663 44.3568 108.104 44.0772 107.918 43.6111C107.731 43.1451 108.011 42.5859 108.477 42.3995C112.019 41.0946 116.027 42.9587 117.332 46.5005C118.636 50.0423 116.772 54.0502 113.231 55.3551C112.485 55.5415 111.646 55.7279 110.9 55.7279Z" fill="#2764A5"/>
<path d="M61.0339 2.13511C63.83 2.13511 66.533 2.78754 68.8631 3.81281C71.9389 2.41472 75.2943 1.48266 78.6498 1.01663C105.12 -2.89801 138.115 5.1177 144.733 34.7572C147.249 45.8487 145.944 57.4062 143.428 68.4977C140.632 80.7076 138.022 93.2904 150.139 101.399C140.632 101.586 127.117 102.052 117.889 98.976C111.738 96.9255 108.569 91.1467 108.476 84.8087C108.382 78.2843 110.06 71.8531 110.06 65.2355C110.06 60.482 109.501 55.4489 106.705 51.5342C101.858 44.9166 89.3684 40.3495 89.8345 30.5629C89.7413 32.0542 88.4364 33.0795 87.3179 34.0115C83.5897 36.8077 78.2769 37.8329 73.6166 38.765C66.1602 40.2563 58.1445 41.934 51.154 37.8329C45.3753 34.3843 41.7402 28.0463 41.7402 21.3355C41.8334 10.71 50.4084 2.13511 61.0339 2.13511Z" fill="#2764A5"/>
</svg>
