<svg width="395" height="327" viewBox="0 0 395 327" fill="none" xmlns="http://www.w3.org/2000/svg">
<rect x="72.4141" y="2.19824" width="321.49" height="296.97" rx="27" fill="white" stroke="#2764A5" stroke-width="2"/>
<path d="M368.54 2.23438H97.3125C83.3245 2.23438 71.9941 13.5647 71.9941 27.5527V40.4217H393.999V27.5527C393.859 13.5647 382.528 2.23438 368.54 2.23438Z" fill="#2764A5"/>
<path d="M107.524 26.8528C109.919 26.8528 111.86 24.9113 111.86 22.5165C111.86 20.1216 109.919 18.1802 107.524 18.1802C105.129 18.1802 103.188 20.1216 103.188 22.5165C103.188 24.9113 105.129 26.8528 107.524 26.8528Z" fill="white"/>
<path d="M124.45 26.8528C126.844 26.8528 128.786 24.9113 128.786 22.5165C128.786 20.1216 126.844 18.1802 124.45 18.1802C122.055 18.1802 120.113 20.1216 120.113 22.5165C120.113 24.9113 122.055 26.8528 124.45 26.8528Z" fill="white"/>
<path d="M141.375 26.8528C143.77 26.8528 145.712 24.9113 145.712 22.5165C145.712 20.1216 143.77 18.1802 141.375 18.1802C138.98 18.1802 137.039 20.1216 137.039 22.5165C137.039 24.9113 138.98 26.8528 141.375 26.8528Z" fill="white"/>
<rect x="205.912" y="120.713" width="163.47" height="163.47" rx="8" fill="#B3CDFA"/>
<rect x="205.912" y="53.9629" width="163.47" height="93.9951" rx="8" fill="#B3CDFA"/>
<path d="M114.238 275.28C116.336 276.959 118.993 277.938 121.651 277.938C122.211 277.938 122.63 277.518 122.63 276.959C122.63 276.399 122.211 275.98 121.651 275.98C119.553 275.98 117.315 275.28 115.636 274.021C115.217 273.741 114.657 273.602 114.238 274.021C113.958 274.301 113.818 275 114.238 275.28Z" fill="#1B4ACB"/>
<path d="M117.595 285.772C119.413 286.611 121.372 287.171 123.47 287.31C124.03 287.31 124.449 286.891 124.449 286.331C124.449 285.772 124.03 285.352 123.47 285.352C123.19 285.352 123.05 285.352 122.771 285.352C122.631 285.352 122.631 285.352 122.771 285.352H122.631C122.491 285.352 122.351 285.352 122.351 285.352C121.931 285.212 121.512 285.212 121.092 285.072C120.672 284.933 120.253 284.793 119.833 284.653C119.553 284.513 119.413 284.513 119.134 284.373C119.134 284.373 118.854 284.233 118.994 284.373C118.854 284.373 118.714 284.233 118.574 284.233C118.155 283.953 117.455 284.093 117.175 284.653C117.035 284.933 117.035 285.632 117.595 285.772Z" fill="#1B4ACB"/>
<path d="M291.746 103.647C283.213 88.3999 257.055 60.0042 237.053 73.9922C227.121 80.9863 222.085 96.3731 225.303 107.843C226.282 111.62 228.24 114.977 229.499 118.614C231.038 123.23 231.178 128.266 230.059 133.022C226.142 150.087 207.118 160.159 201.663 176.804C197.187 190.373 203.341 206.319 214.812 214.852C226.282 223.384 241.948 225.203 255.797 221.426C267.127 218.349 280.695 213.593 286.99 202.962C298.18 184.218 300.418 161.557 300.698 139.596C300.838 134.281 300.838 128.825 299.859 123.65C298.46 116.656 295.383 109.942 291.746 103.647Z" fill="#2764A5"/>
<path d="M141.234 263.11L175.085 261.991C178.023 261.851 180.681 260.313 182.219 257.795L199.704 228.42L244.606 255.137L222.225 292.625C214.951 304.934 201.243 312.208 186.975 311.369L141.374 308.711L141.234 263.11Z" fill="white"/>
<path d="M337.068 134.141C342.244 139.876 347.419 145.612 349.797 152.885C352.735 161.418 351.336 171.07 347.419 179.183C343.503 187.296 337.208 194.15 330.074 199.745C326.577 202.683 322.66 205.34 318.324 206.599C305.035 210.516 284.613 208.558 280.417 192.332C279.298 187.995 280.556 182.12 280.696 177.644C281.116 171.21 282.095 164.775 283.354 158.48C287.271 138.757 286.851 117.915 295.803 99.7308C297.622 96.0939 300.28 92.0374 304.336 91.4778C308.113 90.9183 311.61 93.4362 313.988 96.3736C320.003 103.508 321.961 113.019 326.717 120.993C329.654 125.888 333.431 129.945 337.068 134.141Z" fill="#2764A5"/>
<path d="M353.852 318.644C353.433 316.686 353.013 314.727 352.733 312.769C351.335 303.957 351.335 295.004 351.474 286.192C351.474 280.177 351.754 274.162 351.055 268.147C350.355 261.993 349.796 255.978 349.097 249.823C348.117 240.171 347.138 230.519 346.019 220.868C345.6 217.091 345.46 213.034 344.76 209.258C340.983 186.317 321.12 169.252 297.9 168.972L276.219 168.692C275.659 168.692 275.1 168.692 274.54 168.692H253.279C234.115 169.392 217.189 181.561 210.335 199.606L199.564 228.142L230.198 246.746L237.332 287.171L238.591 318.504L353.852 318.644Z" fill="#5E9AD9"/>
<path d="M355.391 320.042L237.333 319.902L236.074 287.31L230.898 258.075C230.758 257.376 231.178 256.676 232.017 256.536C232.716 256.396 233.416 256.816 233.556 257.655L238.731 287.17L239.99 317.384L352.314 317.524C352.034 315.985 351.755 314.587 351.475 313.048C350.076 304.096 350.076 295.003 350.216 286.191V283.673C350.216 278.358 350.356 273.322 349.796 268.286L344.9 221.147C344.761 219.888 344.621 218.629 344.481 217.23C344.201 214.712 344.061 212.054 343.642 209.537C339.865 187.156 320.701 170.65 298.041 170.37L276.359 170.09C275.8 170.09 275.24 170.09 274.681 170.09H253.419C234.675 170.79 218.309 182.54 211.734 200.165L201.383 227.581L218.589 238.072C219.148 238.492 219.428 239.191 219.008 239.891C218.589 240.45 217.889 240.73 217.19 240.31L198.166 228.7L209.356 199.185C216.35 180.721 233.696 168.272 253.419 167.433H274.82C275.38 167.433 275.939 167.433 276.499 167.433L298.18 167.712C322.1 167.992 342.383 185.337 346.299 209.117C346.719 211.775 346.999 214.432 347.139 216.95C347.278 218.209 347.418 219.468 347.418 220.727L352.314 267.867C352.874 273.182 352.734 278.498 352.734 283.533V286.051C352.594 294.724 352.594 303.676 353.993 312.349C354.272 314.307 354.692 316.265 355.112 318.224L355.391 320.042Z" fill="#2764A5"/>
<path d="M297.201 179.882H261.951L267.127 123.65H293.564L297.201 179.882Z" fill="white"/>
<path d="M280.695 201.844C287.689 201.844 337.626 204.642 343.641 203.802C343.641 203.802 341.543 187.856 323.498 176.666C316.085 171.91 307.412 169.112 298.04 168.972L276.359 168.692C275.799 168.692 275.24 168.692 274.68 168.692H253.418C246.424 168.972 239.71 170.791 233.695 173.728C240.41 192.752 258.874 201.844 280.695 201.844Z" fill="white"/>
<path d="M338.886 205.202C330.353 205.202 313.428 204.502 299.3 203.803C290.627 203.383 283.074 203.103 280.696 203.103C256.636 203.103 239.012 192.612 232.437 174.288L232.018 173.169L232.997 172.609C239.151 169.532 252.44 167.574 253 167.434H253.139H261.392V163.797C261.392 163.098 261.952 162.538 262.651 162.538C263.351 162.538 263.91 163.098 263.91 163.797V170.092L253.279 170.232C252.16 170.371 241.11 172.19 235.095 174.708C241.529 191.214 258.035 200.725 280.416 200.725C282.794 200.725 290.068 201.005 299.16 201.425C314.687 202.124 335.389 202.963 341.824 202.684C340.844 198.627 336.788 186.737 322.52 177.925C315.106 173.169 306.574 170.651 297.761 170.511H296.642L293.285 143.095C293.145 142.395 293.705 141.696 294.404 141.696C295.104 141.556 295.803 142.116 295.803 142.815L298.88 167.993C307.833 168.273 316.365 171.071 323.919 175.827C342.383 187.157 344.621 203.103 344.761 203.803L344.901 205.062L343.642 205.202C342.943 205.202 341.264 205.202 338.886 205.202Z" fill="#2764A5"/>
<path d="M264.19 155.264C264.33 154.984 266.009 154.984 266.289 154.844C267.967 154.424 269.646 153.585 271.184 152.606C272.443 151.907 275.381 150.648 276.08 149.389C275.8 149.808 275.521 150.368 275.241 150.787C272.723 154.844 268.387 159.6 263.631 160.579C263.771 159.46 263.771 158.481 263.911 157.362C264.05 156.802 264.051 155.963 264.19 155.264Z" fill="#2764A5"/>
<path d="M322.799 260.174L230.758 319.204L306.713 318.924L322.799 260.174Z" fill="#2764A5"/>
<path d="M114.938 266.047C115.917 265.628 117.176 266.327 118.015 266.887C122.491 269.544 128.227 271.643 132.843 268.985C137.039 266.607 143.054 262.97 141.795 258.214C141.795 258.214 140.536 245.345 142.354 247.443C145.012 250.66 146.551 256.396 148.649 260.312C151.027 264.788 154.244 268.285 158.86 269.125L253.979 266.047C256.916 265.907 259.574 264.369 261.113 261.851L278.598 232.476C289.089 243.247 301.678 251.78 315.666 257.375L322.8 260.172L301.119 296.541C293.845 308.851 280.137 316.124 265.869 315.285L163.337 309.27C162.637 309.13 148.929 307.312 142.354 304.654C135.36 301.857 128.646 298.36 122.212 294.303C120.533 293.184 118.855 292.065 118.015 290.247C117.176 288.428 117.456 286.33 117.036 284.372C116.616 281.434 114.798 278.776 113.679 275.979C112.56 273.181 111.861 269.824 113.539 267.166C113.959 266.607 114.378 266.187 114.938 266.047Z" fill="white"/>
<path d="M268.107 316.684C267.267 316.684 266.568 316.684 265.729 316.544L162.217 310.53V310.39C158.86 309.83 147.67 308.152 141.935 305.774C134.941 302.976 128.086 299.479 121.652 295.423C119.833 294.303 117.875 292.905 116.896 290.806C116.197 289.408 116.197 287.869 116.057 286.47C116.057 285.771 115.917 285.211 115.917 284.512C115.637 282.554 114.798 280.875 113.819 278.917C113.399 278.077 112.979 277.238 112.56 276.259C110.881 272.342 110.881 268.845 112.56 266.327C113.119 265.488 113.679 264.929 114.518 264.649C116.197 263.949 117.875 264.929 118.714 265.488C122.631 267.726 128.086 269.964 132.283 267.586C136.899 264.929 141.515 261.851 140.676 258.214V258.074C139.557 246.604 140.816 246.045 141.655 245.765C141.935 245.625 142.774 245.345 143.613 246.325C145.432 248.423 146.69 251.5 147.81 254.577C148.509 256.396 149.208 258.074 149.908 259.473C152.426 264.089 155.363 266.747 159 267.586L253.979 264.509C256.497 264.369 258.735 263.11 259.994 261.012L278.318 230.238L279.437 231.497C284.333 236.673 289.928 241.289 295.803 245.345C296.362 245.765 296.502 246.604 296.083 247.164C295.663 247.723 294.824 247.863 294.264 247.444C288.669 243.667 283.493 239.331 278.738 234.575L262.092 262.411C260.413 265.348 257.336 267.167 253.979 267.167L158.72 270.244H158.58C154.104 269.405 150.327 266.188 147.53 260.732C146.69 259.193 145.991 257.375 145.292 255.557C144.452 253.598 143.753 251.64 142.774 249.961C142.774 252.06 142.914 254.997 143.194 257.655C144.592 263.53 137.458 267.586 133.542 269.824C129.345 272.202 123.89 271.363 117.456 267.726C116.896 267.446 115.917 266.887 115.497 267.027C115.357 267.027 115.078 267.167 114.798 267.726C113.259 270.104 114.238 273.461 114.938 275.28C115.217 276.119 115.637 276.958 116.057 277.798C117.036 279.756 118.015 281.854 118.295 284.092C118.435 284.792 118.435 285.491 118.435 286.19C118.575 287.449 118.575 288.568 118.994 289.548C119.694 291.086 121.232 292.065 122.771 293.045C129.066 296.961 135.78 300.458 142.634 303.256C148.649 305.774 161.937 307.592 163.196 307.732H163.336L265.589 313.747C279.437 314.586 292.586 307.592 299.72 295.702L320.562 260.592L314.827 258.354C314.127 258.074 313.847 257.375 314.127 256.676C314.407 255.976 315.106 255.696 315.806 255.976L324.339 259.333L301.958 297.101C294.964 309.271 282.095 316.684 268.107 316.684Z" fill="#2764A5"/>
<path d="M283.493 125.609C284.053 129.805 287.97 132.882 292.306 132.323C296.502 131.763 299.58 127.847 299.02 123.51C298.461 119.314 294.544 116.237 290.208 116.796C286.011 117.356 282.934 121.272 283.493 125.609Z" fill="white"/>
<path d="M291.327 133.582C286.85 133.582 282.934 130.225 282.374 125.749C281.675 120.713 285.172 116.237 290.207 115.537C295.243 114.838 299.719 118.335 300.419 123.371C300.698 125.749 300.139 128.126 298.6 130.085C297.062 132.043 294.963 133.302 292.585 133.582C292.026 133.582 291.606 133.582 291.327 133.582ZM284.892 125.469C285.452 128.966 288.669 131.484 292.166 131.064C293.844 130.784 295.383 129.945 296.502 128.546C297.621 127.147 298.041 125.469 297.761 123.79C297.341 120.293 293.984 117.775 290.487 118.195C286.85 118.615 284.332 121.832 284.892 125.469Z" fill="#2764A5"/>
<path d="M288.25 105.185C288.25 105.185 302.937 155.123 267.268 163.096C231.458 171.069 237.333 103.367 237.333 103.367C237.333 103.367 258.455 71.0545 288.25 105.185Z" fill="white"/>
<path d="M261.671 165.055C256.775 165.055 252.439 163.516 248.802 160.299C232.576 146.031 235.793 104.907 235.933 103.228C235.933 102.529 236.632 101.969 237.332 102.109C238.031 102.109 238.591 102.808 238.451 103.508C238.451 103.927 235.094 145.052 250.341 158.481C254.677 162.258 260.272 163.377 266.847 161.978C280.695 158.9 288.388 148.969 289.647 132.323C289.647 131.624 290.346 131.064 291.046 131.064C291.745 131.064 292.305 131.764 292.305 132.463C290.906 150.088 282.373 161.138 267.406 164.356C265.588 164.775 263.629 165.055 261.671 165.055Z" fill="#2764A5"/>
<path d="M317.065 131.624C318.184 127.987 320.002 124.77 320.282 120.993C320.842 109.663 318.743 97.0735 313.568 86.8623C307.833 75.2522 297.761 67.4189 284.892 64.2017C274.261 61.5439 257.756 62.8029 249.223 70.2165C238.592 79.4486 238.312 95.2551 252.72 101.27C262.651 105.466 278.598 96.2343 281.116 111.901C281.815 116.237 281.116 120.853 282.095 125.189C283.214 129.806 286.151 133.722 289.369 137.359C293.005 141.416 297.202 145.332 302.517 146.731C306.294 147.71 312.309 146.871 314.687 143.514C316.785 140.436 315.946 135.261 317.065 131.624Z" fill="#2764A5"/>
<path d="M179.843 261.572C179.563 261.572 179.283 261.432 179.003 261.292C178.444 260.873 178.444 260.033 178.864 259.474L180.962 257.096L198.447 227.581C198.866 227.022 199.566 226.742 200.265 227.162C200.825 227.581 201.105 228.281 200.685 228.98L183.06 258.774L180.822 261.292C180.542 261.432 180.262 261.572 179.843 261.572Z" fill="#2764A5"/>
<path d="M259.714 275.701C259.574 275.701 259.574 275.701 259.434 275.701C258.735 275.561 258.315 274.862 258.455 274.162C259.294 270.385 256.636 266.329 256.636 266.329C256.217 265.769 256.357 264.93 257.056 264.51C257.616 264.091 258.455 264.231 258.875 264.93C259.014 265.07 262.232 269.966 261.113 274.862C260.833 275.281 260.273 275.701 259.714 275.701Z" fill="#2764A5"/>
<path d="M178.584 320.963H244.188C246.846 320.963 249.084 318.323 249.084 315.187C249.084 312.051 246.846 309.41 244.188 309.41H178.584C175.926 309.41 173.828 311.886 173.828 315.022V315.352C173.828 318.323 175.926 320.963 178.584 320.963Z" fill="#2764A5"/>
<path d="M49.4493 320.963H191.237C195.738 320.963 198.974 316.295 197.286 312.051L164.089 225.763C163.105 223.217 160.713 221.519 158.041 221.519H16.253C11.7518 221.519 8.51654 226.187 10.2045 230.431L43.4008 316.719C44.3855 319.266 46.7767 320.963 49.4493 320.963Z" fill="#2764A5"/>
<path d="M209.918 316.405C209.638 316.405 209.498 316.125 209.498 315.985V315.006C209.498 314.586 209.218 314.307 208.799 314.307H202.224C201.945 314.307 201.805 314.027 201.805 313.887C201.805 313.607 202.084 313.467 202.224 313.467H208.799C209.638 313.467 210.477 314.167 210.477 315.146V316.125C210.337 316.125 210.058 316.405 209.918 316.405Z" fill="#2764A5"/>
<path d="M220.127 316.125C219.847 316.125 219.707 315.845 219.707 315.705V314.726C219.707 314.307 219.427 314.027 219.008 314.027H212.433C212.154 314.027 212.014 313.747 212.014 313.607C212.014 313.327 212.293 313.188 212.433 313.188H219.008C219.847 313.188 220.686 313.887 220.686 314.866V315.845C220.546 315.985 220.406 316.125 220.127 316.125Z" fill="#2764A5"/>
<circle cx="145.294" cy="100.961" r="46.9975" fill="#B3CDFA"/>
<rect x="98.2969" y="161.581" width="93.9951" height="14.9847" rx="7.49236" fill="#B3CDFA"/>
<rect x="111.92" y="184.739" width="66.7501" height="5.44899" rx="2.72449" fill="#B3CDFA"/>
<rect x="2.57812" y="247.758" width="5.44899" height="73.5614" rx="1" transform="rotate(-3.73495 2.57812 247.758)" fill="#2764A5"/>
<rect x="33.6836" y="252.802" width="5.44899" height="67.3023" rx="1" transform="rotate(3.08878 33.6836 252.802)" fill="#5E9AD9"/>
<rect x="45" y="242.509" width="5.44899" height="78.502" rx="1" transform="rotate(6.11838 45 242.509)" fill="#E7EEFD"/>
<path d="M39.801 326.041H7.34874C3.43209 326.041 0.214844 322.824 0.214844 318.907V281.839C0.214844 278.762 2.73269 276.104 5.94994 276.104H41.3396C44.417 276.104 47.0748 278.622 47.0748 281.839V318.907C46.9349 322.824 43.7176 326.041 39.801 326.041Z" fill="#B3CDFA"/>
</svg>
