<svg xmlns="http://www.w3.org/2000/svg" xmlns:xlink="http://www.w3.org/1999/xlink" viewBox="0 0 285.63 337.8"><defs><style>.cls-1{fill:none;}.cls-2{isolation:isolate;}.cls-3{fill:#e1f2f0;}.cls-4{clip-path:url(#clip-path);}.cls-5{clip-path:url(#clip-path-2);}.cls-6{fill:#c8d8d7;}.cls-7{fill:#0d425f;}.cls-8{fill:#0f425f;}.cls-9{fill:#89cac3;}.cls-10{clip-path:url(#clip-path-3);}.cls-11{fill:#75aba7;}.cls-12{clip-path:url(#clip-path-4);}.cls-13{mix-blend-mode:multiply;}.cls-14{clip-path:url(#clip-path-5);}.cls-15{fill:#c6c6c6;}.cls-16{fill:#b8dfdb;}.cls-17{fill:#fff;}.cls-18{clip-path:url(#clip-path-7);}.cls-19{fill:#1d1d1b;}.cls-20{fill:#b6c0c6;}.cls-21{fill:#9aa6ab;}.cls-22{fill:#dadada;}.cls-23{clip-path:url(#clip-path-8);}.cls-24{fill:#bbbabb;}.cls-25{fill:#d5b942;}.cls-26{clip-path:url(#clip-path-9);}.cls-27{fill:#b59f36;}.cls-28{clip-path:url(#clip-path-10);}.cls-29{fill:#0a2e42;}</style><clipPath id="clip-path"><path class="cls-1" d="M45,68.1C16.36,91.51.11,132.9,0,176.09V177c.1,37.75,12.53,76.8,39.79,106.34,58.75,63.69,146.65,50.61,200.52,6.6s61.11-138.73,14.24-196.09c-27.79-34-77.36-52.21-124.34-52.21C98,41.62,66.93,50.19,45,68.1"/></clipPath><clipPath id="clip-path-2"><rect class="cls-1" x="39.19" y="-1.05" width="213.94" height="337.51"/></clipPath><clipPath id="clip-path-3"><path class="cls-1" d="M74.68,89.42c-7.53,17.21-11.29,48-11.83,50.9S39.12,167.53,36.26,185c0,0,5.89,5.91,9.41-3.13,3.66-9.41,17.76-24,17.76-24s1.75,27.61,1.93,30.56,1.07,11.82,1.79,23.29c.39,6.24,3.23,45.16,3,49.11s.71,22.58.89,26-.18,13.44-.18,17.92-1.25,5.92-5.55,7.35c-2.41.8-10,4.12-13.08,5.55s-2.15,4.3-1.44,4.66,9.25.36,12.73-.18c5.19-.8,9.85-2,13.44-2.48s6.09-2.89,6.09-4.33a92.78,92.78,0,0,0-.54-10.57c-.54-4.48-.18-24.91.18-30.11s-.54-15.94-1.07-24.19.71-25.8,1.43-29.75,2.51-5.91,7.35-8.24,16.66-4.84,28.67-5.2,29,1.08,33.51,2,5.74,7.89,5.92,10.76,1.79,19.71,2.5,23.83,2,15,2.51,20.25,4.12,35.48,4.12,39.25a95.79,95.79,0,0,0,1.08,12.54c.36,1.62,5.73,1.79,13.62,3s18.1-.14,18.1-.14,2.78-.18,2.42-2.69-8.15-5-15.32-7.17c-6.64-2-8.69-5.55-9.41-8.6-.66-2.81-.63-19.35-.63-19.35s-1.07-45.88-1.07-55.92S178,168.66,178,168.66s.56-2.83-.3-20.37c-.5-10.25-4.84-27.06-8.42-39-4.36-14.5-15.06-48.84-41.58-53.5a59.25,59.25,0,0,0-10.13-.93c-20.48,0-33.35,12.68-42.91,34.53"/></clipPath><clipPath id="clip-path-4"><path class="cls-1" d="M67.15,211.64c0,.4.06.93.1,1.58,5.78,2,11.52,3.72,16.46,5.15,1-2.55,2.91-4.17,6.74-6l.69-.32c-8.28-1.44-15.63-4.49-24-7l-.45-.14c.15,2.13.31,4.4.46,6.78M36.8,182.45c-.22.85-.4,1.68-.54,2.5,0,0,4.93,4.94,8.46-1.12.81-3.66-.64-6-2.72-6-1.61,0-3.59,1.39-5.2,4.62"/></clipPath><clipPath id="clip-path-5"><rect class="cls-1" x="157.7" y="236.09" width="28.22" height="32.01"/></clipPath><clipPath id="clip-path-7"><path class="cls-1" d="M124.5,172.58c-11.1,0-45.12-1-46.58-.72-.87.18-2.51.18-3,2.87C74.41,177,76,184.31,77,189.42c.45,2.29,6,6.6,7.52,7,3.61,1,22.18,4.84,39.12,3.4s39.54-8.19,41.42-10.42c1.44-1.7,2.82-10.2,2.43-14.51-.28-3-3.59-3-6.59-3.32q-.33,0-1.08,0c-5.26,0-25.13,1-35.27,1"/></clipPath><clipPath id="clip-path-8"><polygon class="cls-1" points="107.1 243.9 166.57 333.51 181.89 323.37 122.42 233.76 107.1 243.9"/></clipPath><clipPath id="clip-path-9"><path class="cls-1" d="M84.29,192.43a12.25,12.25,0,0,0-3.45,17c.15.23.35.41.52.64l-.07,0,25.23,38.12,20.42-13.52-25.23-38.12-.07.05c-.13-.24-.23-.49-.38-.73a12.23,12.23,0,0,0-17-3.45"/></clipPath><clipPath id="clip-path-10"><path class="cls-1" d="M81.36,210l-.07,0,6.2,9.37c5.67,1.62,9.69,2.74,10.47,3.32,3.41,2.5,9.68,2.55,13.59,1,1.72-.66,4-2.16,2.61-5.75s-8.83-5.32-11.49-5.22c-8.16.31-15-1.26-21.77-3.36.14.2.31.36.46.56"/></clipPath></defs><g class="cls-2"><g id="Ebene_2" data-name="Ebene 2"><g id="Ebene_1-2" data-name="Ebene 1"><path class="cls-3" d="M39.79,283.32c58.75,63.69,146.65,50.61,200.52,6.6s61.11-138.73,14.24-196.09S98.88,24.09,45,68.1s-63.88,151.62-5.21,215.22"/><g class="cls-4"><g class="cls-2"><g class="cls-5"><path class="cls-6" d="M175.71,262.42a53.56,53.56,0,0,0-17.93,4.11l-14.21-21.4c4.94-1.34,10.69-4.43,16.64-10.26A112.46,112.46,0,0,0,171,222.32c.57,6.17,1.58,16.05,2.1,19.07.72,4.13,2,15.06,2.51,20.25,0,.22.05.48.08.78m-6.26-50.48c-11,19-24.49,20.8-24.49,20.8a46.46,46.46,0,0,0-6.43-1.11l-10.94-16.54h0a3.18,3.18,0,0,0,.31-.61v0a3.45,3.45,0,0,0,.15-.67s0,0,0-.06a4,4,0,0,0,0-.76,1,1,0,0,0,0-.17,4.38,4.38,0,0,0-.25-.9,4.12,4.12,0,0,0-.33-.62l-.16-.23c-.09-.12-.17-.24-.27-.36l-.27-.27-.27-.27-.36-.3-.25-.19c-.15-.11-.3-.22-.46-.32l-.21-.13a5.3,5.3,0,0,0-.57-.33l-.14-.08c-.22-.12-.44-.23-.67-.33l-.08,0-.76-.33h0l-1.64-2.48c3.18-.39,6.53-.66,9.89-.76,12-.36,29,1.07,33.51,2,2.4.48,3.87,2.71,4.75,5.13m-91-13.84c-14-4.5-24-10-20.68-18.61,3.65-9.4,17.76-24,17.76-24s1.75,27.61,1.93,30.56c.11,1.88.52,6.21,1,12.08M244.13,332.63V318.46a2.83,2.83,0,0,0-2.84-2.83h-8.8a53.86,53.86,0,0,0-43.22-52.25c-.32-14.31-.74-34.54-.74-40.8,0-6.56.67-28.55,1.12-43a94,94,0,0,0,.72-20.18c0-.53-.08-1-.14-1.39-.06-2.92-.18-6.82-.44-12-.51-10.26-4.84-27.06-8.42-39-4.18-13.9-14.19-46-38.38-52.75.11-4.88.64-17.66,3.15-27.55,3.13-12.37,7-19.31,7-19.38L150.76,6c-.16.3-4.07,7.3-7.3,20.06-2.51,9.9-3.09,22.23-3.23,27.58-.15,0-.29-.07-.44-.09a63.05,63.05,0,0,0-6.38-.79c.05-2.64.05-6.07-.14-9.07-.22-3.64-.31-7.44-.33-9.71a5.35,5.35,0,0,0,3.8-4.9c0-3.21-1.44-7.16-4.66-7.16s-6.81,2.16-6.81,5.37,1.82,7,4.91,7.14c0,2.33.12,6,.33,9.43.18,2.86.18,6.19.13,8.78a43.22,43.22,0,0,0-11.5,1.24c-.16-4.83-.42-11.51-.74-14.89A69.43,69.43,0,0,0,116,27.2l-2.64.8a68.43,68.43,0,0,1,2.27,11.2c.34,3.44.6,10.6.75,15.43C103.3,59.05,94.05,70.39,86.75,87.1c-7.53,17.2-11.29,48-11.83,50.89s-23.45,29-26.59,44.64a8.33,8.33,0,0,0-.14,1.57c0,.14,0,.28,0,.42a7.88,7.88,0,0,0,.16,1.27,1.37,1.37,0,0,0,0,.28,9,9,0,0,0,.49,1.49c.05.12.11.23.16.35a12.34,12.34,0,0,0,.64,1.18c.08.12.14.24.22.36A17,17,0,0,0,51,191l.15.16q.54.63,1.17,1.26l.36.34c.46.43.94.86,1.45,1.28a.7.7,0,0,0,.1.08c.56.46,1.15.9,1.77,1.34l.43.3c.53.37,1.07.73,1.64,1.09l.37.24c.68.42,1.38.84,2.11,1.25l.38.21c.63.35,1.27.69,1.93,1l.54.28c.78.39,1.57.79,2.39,1.17l0,0,2.44,1.11.65.28,2.17.92.42.18c.85.35,1.71.69,2.57,1l.72.28,2,.76.75.27,1.5.54c.06.95.13,1.92.19,2.92.39,6.23,3.22,45.16,3,49.1s.72,22.58.9,26S83,297.84,83,302.32s-1.25,5.92-5.55,7.35c-2.41.8-10,4.12-13.09,5.56s-2.15,4.3-1.43,4.66,9.25.36,12.72-.18c5.2-.81,9.86-2,13.44-2.49s6.1-2.89,6.1-4.32a92.83,92.83,0,0,0-.54-10.58c-.54-4.48-.18-24.91.18-30.1s-.54-16-1.08-24.2.72-25.8,1.44-29.74a9.18,9.18,0,0,1,2.07-4.66l21.35,32.25,2.38-1.58,21.34,32.15a53.73,53.73,0,0,0-17.5,39.19h-8.52a2.83,2.83,0,0,0-2.84,2.83v14.17a2.84,2.84,0,0,0,2.84,2.84h125a2.84,2.84,0,0,0,2.84-2.84"/></g></g></g><path class="cls-7" d="M131.07,58H128.3c0-.71,0-17.52,3.27-30.26S138.71,8,138.88,7.65L141.28,9c0,.07-3.9,7-7,19.38S131.07,57.8,131.07,58"/><path class="cls-7" d="M121.39,58.76l-2.76-.14c0-.07.35-7.51,0-13.11s-.36-11.85-.36-11.91H121c0,.06,0,6.12.36,11.74s0,13.11,0,13.42"/><path class="cls-7" d="M104.65,61.23c0-.15-.37-14.89-.89-20.33a67.91,67.91,0,0,0-2.28-11.2l2.65-.8a71,71,0,0,1,2.38,11.74c.54,5.54.89,19.92.9,20.53Z"/><path class="cls-8" d="M97.62,34.05c3,0,6.27-2.9,6.27-5.91s-3.08-5.38-6.1-5.38-4.65,3-4.65,6,1.46,5.29,4.48,5.29"/><path class="cls-8" d="M118.31,36.74c3.22,0,6.37-2.16,6.37-5.38s-1.45-7.17-4.66-7.17-6.81,2.16-6.81,5.38,1.89,7.17,5.1,7.17"/><path class="cls-8" d="M144,12.72c3.56,0,6.09-3.6,6.09-7.16S146.52,0,143,0s-5.37,3.61-5.37,7.17,2.89,5.55,6.45,5.55"/><path class="cls-9" d="M178,168.66s-1.55,46.21-1.55,56.25,1.07,55.91,1.07,55.91,0,16.54.63,19.35c.72,3.05,2.77,6.61,9.41,8.6,7.17,2.15,15,4.66,15.32,7.17s-2.42,2.69-2.42,2.69-10.21,1.35-18.1.14-13.26-1.39-13.62-3a96.07,96.07,0,0,1-1.07-12.54c0-3.77-3.59-34.05-4.13-39.25s-1.79-16.13-2.51-20.25-2.33-21-2.5-23.83-1.44-9.86-5.92-10.75-21.5-2.33-33.51-2-23.83,2.87-28.67,5.2-6.63,4.3-7.35,8.24-2,21.51-1.43,29.75,1.43,19,1.07,24.2-.72,25.62-.18,30.1a92.78,92.78,0,0,1,.54,10.57c0,1.44-2.51,3.82-6.09,4.33s-8.25,1.68-13.44,2.49c-3.48.53-12,.53-12.73.17s-1.61-3.22,1.44-4.65S63,312.8,65.36,312c4.3-1.43,5.55-2.87,5.55-7.35s.36-14.51.18-17.92-1.07-22-.89-26-2.66-42.87-3-49.11c-.72-11.47-1.61-20.35-1.79-23.29s-1.93-30.56-1.93-30.56-14.1,14.63-17.76,24c-3.52,9-9.41,3.13-9.41,3.13,2.86-17.42,26.05-41.76,26.59-44.63s4.3-33.69,11.83-50.89c11-25.26,26.52-38.27,53-33.61s37.22,39,41.58,53.5c3.58,11.91,7.92,28.72,8.42,39,.86,17.54.3,20.37.3,20.37"/><g class="cls-10"><path class="cls-11" d="M182.69,163.84c.57,11.34.86,24.58-8.64,45.36-5.16,11.27-14.51,23.26-21.51,30.12-16.28,16-31.12,11.53-31.74,6.09a20.84,20.84,0,0,1-.17-3.31c.16-3.9,2.14-3.18,4.11-5.12,2.41-2.38,12.55.22,12.55.22s21.07-2.83,32-38.42c7-22.65,3.17-26,3.17-26s9.65-20.92,10.24-9"/><path class="cls-11" d="M44.15,185.67c-3.51,9,7.76,14.7,23,19.33,12,3.66,21.94,8.36,35.53,7.84,2.66-.1,10.06,1.64,11.49,5.22s-2.16,4.59-2.61,5.75c-.35.9-10.18,1.46-13.59-1.05s-67-15-63.21-34c3.13-15.67,13.06-12.53,9.4-3.13"/></g><g class="cls-12"><path class="cls-8" d="M67.42,299h17l-1.79,6.1s-6.28,2.33-10.76,2.68-4.48,0-4.48,0Z"/><path class="cls-8" d="M66,280.9a21.18,21.18,0,0,0,7.71,0c5-.71,15-2.86,15-2.86l-4.3,9.49s-2.69-1.25-8.51,0-8,.9-8,.9Z"/><path class="cls-8" d="M66.89,264.78c2.15,0,5.73.71,9,0s7.08-2,7.08-2,.21,9.68.1,9.68-5.12-.14-7.31,0-8.06.5-8.71.32-.21-8-.21-8"/><path class="cls-8" d="M66.89,246.35a24.73,24.73,0,0,1,4.19-.46,43.5,43.5,0,0,0,6.56-.56c1-.25,4.69-.63,4.69-.63l-1.11,8s-4.87.32-7,.32-5.41.47-6.06.54S66,252.41,66,252.41Z"/><path class="cls-8" d="M64.77,232.34s4.63-.47,6.17-.68,7.85-2.19,9.14-2.26,2.86,0,2.86,0l-1.43,6.7a38.52,38.52,0,0,0-5.48.43c-1.85.4-7.24,1.58-8.14,1.54s-1.86,0-1.86,0Z"/><path class="cls-8" d="M181.42,294.78l-9.19.8c-3.29.29-13.23-2.31-13.23-2.31l1.88,11s10.37.25,15.87.14,5.47-.48,5.47-.48Z"/><path class="cls-8" d="M181.2,274.59s-3.2,1.23-9.41.82-18.71-2.15-18.71-2.15l6.34,12s3.1-.93,10.33-.42,9.91-.16,9.91-.16Z"/><path class="cls-8" d="M177.62,255.26c-2.63.23-6.89.95-11,.56s-8.88-.9-8.88-.9.63,10.14.76,10.12,6.24-.69,8.93-.78,9.89-.33,10.66-.59-.47-8.41-.47-8.41"/><path class="cls-8" d="M176.31,238.55a8,8,0,0,0-2.62.06,53.27,53.27,0,0,1-9.49,0c-2.84-.22-6.9-.13-6.9-.13l2.08,8.2h8.4c3.67,0,6.77-.5,7.57-.5s2.56-1.39,2.56-1.39Z"/><path class="cls-8" d="M177.9,222.21s-7,1.14-8.87,1.08-8.89-.24-10.47-.18-3.5.31-3.5.31l-.72,7.13s7.52-.63,9.81-.42,9,.88,10.08.74,2.28-.19,2.28-.19Z"/><g class="cls-13"><g class="cls-14"><path class="cls-15" d="M176.56,243.09s-10.21,6.45-9.86,13.8,10.22,10.22,10.22,10.22Z"/></g></g></g><g class="cls-10"><path class="cls-8" d="M68.94,295.15H86l-1.79,6.1s-6.28,2.33-10.76,2.68-4.48,0-4.48,0Z"/><path class="cls-8" d="M67.51,277.05a21.13,21.13,0,0,0,7.7,0c5-.71,15.06-2.86,15.06-2.86L86,283.68s-2.69-1.25-8.52,0-8,.9-8,.9Z"/><path class="cls-8" d="M68.4,260.93c2.15,0,5.74.71,9,0s7.08-2,7.08-2,.22,9.68.11,9.68-5.12-.14-7.31,0-8.07.5-8.71.32-.22-8-.22-8"/><path class="cls-8" d="M68.4,242.5a24.92,24.92,0,0,1,4.2-.46,43.74,43.74,0,0,0,6.56-.56c1-.25,4.69-.63,4.69-.63l-1.11,8s-4.87.32-6.95.32-5.41.47-6.06.54-2.19-1.11-2.19-1.11Z"/><path class="cls-8" d="M66.29,228.49s4.62-.47,6.17-.68,7.84-2.19,9.13-2.26,2.87,0,2.87,0L83,232.25a38.72,38.72,0,0,0-5.49.43c-1.84.4-7.24,1.58-8.13,1.54s-1.87,0-1.87,0Z"/><path class="cls-8" d="M182.94,290.93l-9.19.8c-3.29.29-13.23-2.31-13.23-2.31l1.88,11s10.36.25,15.87.14,5.47-.48,5.47-.48Z"/><path class="cls-8" d="M182.72,270.74s-3.2,1.23-9.41.82-18.71-2.15-18.71-2.15l6.34,12s3.1-.93,10.33-.42,9.9-.16,9.9-.16Z"/><path class="cls-8" d="M179.14,251.41c-2.63.23-6.89,1-11,.56s-8.87-.9-8.87-.9.62,10.14.76,10.12,6.24-.69,8.92-.78,9.9-.33,10.67-.59-.47-8.41-.47-8.41"/><path class="cls-8" d="M177.83,234.7a8,8,0,0,0-2.62.06,53.37,53.37,0,0,1-9.5,0c-2.83-.22-6.9-.13-6.9-.13l2.09,8.2h8.4c3.67,0,6.77-.5,7.56-.5s2.57-1.39,2.57-1.39Z"/><path class="cls-8" d="M179.42,218.36s-7,1.14-8.87,1.08-8.89-.24-10.47-.18-3.51.31-3.51.31l-.71,7.13s7.52-.63,9.81-.42,9,.88,10.08.74,2.27-.19,2.27-.19Z"/></g><path class="cls-16" d="M117.33,66.84c12,0,24.55,5.83,31.54,15.69s12.27,30.28,14.69,41.93c2.31,11.1,3.77,23.92,4.13,27.78.28,3.08-.62,6.73-1.35,7.79-1.16,1.7-6.18,3.68-11,4s-23.3,1.62-32.08,1.44-30.28-.18-35.84-2S78.08,160.3,76.65,158s-3.23-16.84-1.26-28.13,5-24.73,10.76-37.1,13.8-20.31,17.2-22.58c3.76-2.51,7.89-3.32,14-3.32"/><path class="cls-17" d="M149.3,105.21c2.83,4.53,7.26,11,8.87,17.11,2.51,9.5,3.23,21.68,1.26,25.81s-8.56,6.51-13.44,6.27c-5.47-.27-11.65-.27-14.7-10.84s-1.94-29.06-1.27-33.82c1-7,2.47-13.45,6.8-14.17s11.37,7.87,12.48,9.64"/><path class="cls-17" d="M99.21,102.9c2.5-2,9.85-9.23,13.61-5.1s3.61,33.38,3.25,39.47-1.64,15.53-4.66,16.85C107.92,155.64,101,157,96,155.91s-9.5-3.23-11.82-9.68.62-18.23,3.13-24.34,9.07-16.72,11.9-19"/><path class="cls-8" d="M77.92,171.86c1.46-.3,35.48.72,46.58.72s33.82-1.22,36.35-1c3,.27,6.31.27,6.59,3.32.39,4.31-1,12.81-2.43,14.51-1.88,2.23-24.48,9-41.42,10.42s-35.51-2.41-39.12-3.4c-1.54-.42-7.07-4.73-7.52-7-1-5.11-2.54-12.39-2.08-14.69.54-2.69,2.18-2.69,3-2.87"/><g class="cls-18"><polygon class="cls-17" points="83.28 171.41 87.04 177.68 89.19 171.77 83.28 171.41"/><polygon class="cls-17" points="99.23 171.86 102.81 178.31 104.78 174.19 105.5 170.96 99.23 171.86"/><polygon class="cls-17" points="118.05 172.22 120.02 177.77 122.35 172.58 118.05 172.22"/><polygon class="cls-17" points="134.87 172.35 136.15 177.41 138.65 172.22 134.87 172.35"/><polygon class="cls-17" points="149.94 170.43 151.91 178.31 153.35 174.73 154.07 171.32 149.94 170.43"/></g><path class="cls-19" d="M104.71,151.61c3.11,0,6.63-2.53,6.63-5.24s-2.52-4.92-5.64-4.92-5.64,2.2-5.64,4.92,1.53,5.24,4.65,5.24"/><path class="cls-19" d="M141.2,149.83c3.11,0,5.64-2.13,5.64-4.76s-2.53-4.75-5.64-4.75-6,1.34-6,4,2.88,5.54,6,5.54"/><path class="cls-20" d="M166.58,330.43c-29.74,0-53.86,17.84-53.86-11.91a53.86,53.86,0,0,1,107.72,0c0,29.75-24.11,11.91-53.86,11.91"/><path class="cls-21" d="M166.58,322.26c-16.78,0-30.39,10.06-30.39-6.72a30.39,30.39,0,1,1,60.78,0c0,16.78-13.61,6.72-30.39,6.72"/><polygon class="cls-22" points="122.42 233.76 181.89 323.37 166.57 333.51 107.1 243.9 122.42 233.76"/><g class="cls-23"><path class="cls-24" d="M178.58,165.26c.57,11.34.86,24.58-8.64,45.36-5.16,11.27-14.51,23.25-21.51,30.12-16.28,15.95-31.12,11.52-31.74,6.09a20.89,20.89,0,0,1-.17-3.31c.16-3.9,2.14-3.18,4.11-5.13,2.41-2.37,12.55.23,12.55.23s21.07-2.83,32-38.42c7-22.65,3.17-26,3.17-26s9.65-20.91,10.24-9"/></g><path class="cls-25" d="M81.29,210.08l.07,0c-.17-.22-.37-.41-.52-.64a12.25,12.25,0,0,1,20.42-13.52c.15.24.25.49.38.73l.07-.05,25.23,38.13L106.52,248.2Z"/><g class="cls-26"><path class="cls-27" d="M44.15,185.67c-3.51,9,7.76,14.7,23,19.33,12,3.66,21.94,8.36,35.53,7.84,2.66-.1,10.06,1.64,11.49,5.22s-.89,5.09-2.61,5.75c-3.91,1.51-10.18,1.47-13.59-1s-67-15-63.21-34"/></g><g class="cls-28"><path class="cls-8" d="M66.89,246.35a24.73,24.73,0,0,1,4.19-.46,43.5,43.5,0,0,0,6.56-.56c1-.25,4.69-.62,4.69-.62l-1.11,7.95s-4.87.32-7,.32-5.41.47-6.06.54S66,252.41,66,252.41Z"/><path class="cls-8" d="M64.77,232.34s4.63-.47,6.17-.68,7.85-2.19,9.14-2.26,2.86,0,2.86,0l-1.43,6.7a38.52,38.52,0,0,0-5.48.43c-1.85.4-7.24,1.58-8.14,1.55s-1.86,0-1.86,0Z"/></g><path class="cls-29" d="M104.22,318h125a2.84,2.84,0,0,1,2.84,2.84V335a2.84,2.84,0,0,1-2.84,2.84h-125a2.84,2.84,0,0,1-2.84-2.84V320.79A2.83,2.83,0,0,1,104.22,318Z"/><path class="cls-9" d="M178.3,161.72c.57,11.34.86,24.58-8.65,45.35-5.15,11.27-14.5,23.26-21.51,30.13-16.27,15.94-31.11,11.52-31.73,6.09a22.45,22.45,0,0,1-.18-3.31c.17-3.9,2.15-3.18,4.12-5.13,2.41-2.38,12.54.22,12.54.22s21.07-2.83,32-38.41c7-22.65,3.16-26,3.16-26s9.65-20.92,10.25-9"/><g class="cls-2"><path class="cls-9" d="M45.67,181.82c-3.52,9,7.76,14.7,23,19.33,12,3.66,21.94,8.36,35.52,7.84,2.67-.1,10.07,1.64,11.5,5.22s-1.31,5.21-2.61,5.75c-3.42,1.43-10.18,1.46-13.59-1.05s-67-15-63.22-34c3.14-15.67,13.07-12.53,9.41-3.13"/></g></g></g></g></svg>